<svg width="30" height="30" viewBox="0 0 30 30" fill="none" xmlns="http://www.w3.org/2000/svg">
<path d="M12.8734 3.28618C13.8716 1.74371 16.1284 1.74371 17.1266 3.28618C17.778 4.29282 19.046 4.70482 20.1648 4.27333C21.8789 3.61217 23.7048 4.9387 23.6057 6.7733C23.541 7.9706 24.3247 9.04923 25.4834 9.35771C27.2588 9.83039 27.9562 11.9768 26.7977 13.4027C26.0416 14.3334 26.0416 15.6666 26.7977 16.5972C27.9562 18.0232 27.2588 20.1696 25.4834 20.6423C24.3247 20.9508 23.541 22.0294 23.6057 23.2267C23.7048 25.0613 21.8789 26.3878 20.1648 25.7267C19.046 25.2952 17.778 25.7072 17.1266 26.7138C16.1284 28.2563 13.8716 28.2563 12.8734 26.7138C12.222 25.7072 10.954 25.2952 9.83525 25.7267C8.12105 26.3878 6.29524 25.0613 6.39433 23.2267C6.459 22.0294 5.67533 20.9508 4.51665 20.6423C2.74121 20.1696 2.04382 18.0232 3.20234 16.5972C3.95841 15.6666 3.95841 14.3334 3.20234 13.4027C2.04382 11.9768 2.74121 9.83039 4.51665 9.35771C5.67533 9.04923 6.459 7.9706 6.39433 6.7733C6.29524 4.9387 8.12105 3.61217 9.83525 4.27333C10.954 4.70482 12.222 4.29282 12.8734 3.28618Z" fill="#FC5A40"/>
<path d="M10 14L14.5 18.5L20 11" stroke="white" stroke-width="2" stroke-linecap="round" stroke-linejoin="round"/>
</svg>
