<svg width="20" height="20" viewBox="0 0 20 20" fill="none" xmlns="http://www.w3.org/2000/svg">
<path d="M8.58226 2.19079C9.24772 1.16247 10.7523 1.16247 11.4177 2.19079C11.852 2.86188 12.6974 3.13655 13.4432 2.84889C14.586 2.40811 15.8032 3.29246 15.7371 4.51554C15.694 5.31374 16.2164 6.03282 16.9889 6.23847C18.1725 6.5536 18.6375 7.98451 17.8651 8.93517C17.3611 9.55558 17.3611 10.4444 17.8651 11.0648C18.6375 12.0155 18.1725 13.4464 16.9889 13.7615C16.2164 13.9672 15.694 14.6863 15.7371 15.4845C15.8032 16.7075 14.586 17.5919 13.4432 17.1511C12.6974 16.8635 11.852 17.1381 11.4177 17.8092C10.7523 18.8375 9.24772 18.8375 8.58226 17.8092C8.14797 17.1381 7.30264 16.8635 6.55683 17.1511C5.41403 17.5919 4.19683 16.7075 4.26289 15.4845C4.306 14.6863 3.78355 13.9672 3.0111 13.7615C1.82748 13.4464 1.36254 12.0155 2.13489 11.0648C2.63894 10.4444 2.63894 9.55558 2.13489 8.93517C1.36254 7.98451 1.82748 6.5536 3.0111 6.23847C3.78355 6.03282 4.306 5.31374 4.26289 4.51554C4.19683 3.29246 5.41403 2.40811 6.55683 2.84889C7.30264 3.13655 8.14797 2.86188 8.58226 2.19079Z" fill="#FC5A40"/>
<path d="M8 10.2L9.8 12L12 9" stroke="white" stroke-width="2" stroke-linecap="round" stroke-linejoin="round"/>
</svg>
