<svg width="28" height="28" viewBox="0 0 28 28" fill="none" xmlns="http://www.w3.org/2000/svg">
<path d="M16.5542 8.76641C16.5542 6.13615 14.422 4.00391 11.7917 4.00391C9.16146 4.00391 7.02922 6.13615 7.02922 8.76641M16.5542 8.76641H17.8008C19.7874 8.76641 20.7807 8.76641 21.3486 9.40093C21.9166 10.0354 21.8069 11.0227 21.5875 12.9972L21.3057 15.5333C20.8579 19.5636 20.634 21.5788 19.2778 22.7926C17.9216 24.0064 15.8783 24.0064 11.7917 24.0064C7.70512 24.0064 5.66181 24.0064 4.30564 22.7926C2.94947 21.5788 2.72557 19.5636 2.27775 15.5333L1.99596 12.9972C1.77658 11.0227 1.66688 10.0354 2.2348 9.40093C2.80272 8.76641 3.79603 8.76641 5.78266 8.76641H7.02922M16.5542 8.76641H7.02922M17.5067 12.5764H6.07672" stroke="#FC5A40" stroke-width="1.63636" stroke-linecap="round"/>
<rect x="11.8184" y="0.910156" width="15.2727" height="12" rx="6" fill="#FC5A40"/>
<path d="M16.1819 5.74204L18.0154 8.36141C18.4497 8.98183 19.3686 8.98183 19.8029 8.36141L22.7273 4.18359" stroke="white" stroke-width="1.09091" stroke-linecap="round"/>
</svg>
