<svg width="49" height="43" viewBox="0 0 49 43" fill="none" xmlns="http://www.w3.org/2000/svg">
<path d="M17.8296 0C16.8854 2.24929 15.938 4.49793 14.997 6.7485C10.0617 18.5577 5.12698 30.367 0.191675 42.1762C0.155012 42.2643 0.112561 42.3505 0 42.4399C0 42.3254 0 42.2116 0 42.0971C0 38.3987 0 34.7003 0 31.0018C0 20.8283 0 10.6553 0 0.48176C0 0.320959 0.00771849 0.160801 0.0122209 0C5.95093 0 11.8903 0 17.829 0H17.8296Z" fill="#7A7A7A"/>
<path d="M48.1888 0.000643204C48.192 0.15051 48.1984 0.300377 48.1984 0.450243C48.1984 14.3074 48.1984 28.164 48.1984 42.0212V42.4341C48.1778 42.4412 48.1579 42.4483 48.1373 42.4547C48.0884 42.3454 48.0363 42.2373 47.99 42.1267C42.2726 28.4329 36.5551 14.7384 30.8396 1.04392C30.6962 0.699807 30.5701 0.348617 30.4357 0C36.3532 0 42.2706 0 48.1881 0L48.1888 0.000643204Z" fill="#7A7A7A"/>
<path d="M27.9924 42.7109C27.966 42.6093 27.9499 42.5038 27.912 42.4067C26.8635 39.7502 25.8093 37.0957 24.768 34.4361C24.6715 34.1897 24.5499 34.101 24.2804 34.1016C21.7835 34.1125 19.2872 34.108 16.7903 34.108C16.6546 34.108 16.5189 34.108 16.3298 34.108C18.9296 27.9841 21.5069 21.9122 24.1106 15.7773C24.3544 16.3543 24.5737 16.874 24.7931 17.3937C28.3365 25.8023 31.8805 34.2103 35.4233 42.6189C35.4355 42.6485 35.4439 42.68 35.4535 42.7103H27.9924V42.7109Z" fill="#7A7A7A"/>
</svg>
