<svg width="44" height="54" viewBox="0 0 44 54" fill="none" xmlns="http://www.w3.org/2000/svg">
<path d="M42.0222 17.6602C41.0699 18.6841 40.1228 19.6166 39.2688 20.6338C34.304 26.5452 36.6667 35.1097 42.0624 38.4501C42.5191 38.7323 43.025 38.9296 43.5995 39.2118C43.2967 40.0263 43.0289 40.8581 42.6847 41.6542C41.3623 44.7192 39.7204 47.5855 37.5349 50.0994C36.6253 51.1445 35.5941 52.0319 34.3635 52.6757C32.6181 53.5883 30.8557 53.3843 29.0805 52.8333C27.8435 52.4505 26.6182 52.0253 25.376 51.6558C23.3122 51.0425 21.282 51.2385 19.2842 51.9922C18.3345 52.3511 17.3874 52.718 16.4247 53.0386C14.26 53.7578 12.2583 53.3896 10.4196 52.0293C8.4024 50.5379 6.95838 48.5378 5.67741 46.4027C3.00547 41.9509 1.06201 37.217 0.55479 31.9665C0.160145 27.8883 0.449982 23.8776 2.24465 20.1318C3.85169 16.7754 6.1898 14.186 9.85288 13.1674C12.1897 12.5184 14.5149 12.7886 16.8206 13.3806C18.0537 13.6972 19.2894 14.0098 20.5083 14.3793C21.9924 14.8284 23.4377 14.7118 24.8985 14.2694C26.6738 13.733 28.4387 13.0998 30.2528 12.7674C34.7828 11.9395 38.5183 13.5104 41.5073 17.039C41.6897 17.2549 41.8683 17.4748 42.0222 17.6602Z" fill="#7A7A7A"/>
<path d="M31.7427 0.601562C32.0778 1.83735 31.9161 2.97116 31.6728 4.08509C30.9637 7.33815 29.2661 9.93557 26.6498 11.9171C25.176 13.0337 23.4694 13.2893 21.6139 13.4138C21.6281 10.566 22.2841 7.95141 23.8058 5.59374C25.6742 2.70228 28.5105 1.40158 31.7427 0.601562Z" fill="#7A7A7A"/>
</svg>
