<svg width="20" height="20" viewBox="0 0 20 20" fill="none" xmlns="http://www.w3.org/2000/svg">
<path d="M14.3414 5.20157C14.3414 2.7905 12.3868 0.835938 9.97573 0.835938C7.56465 0.835938 5.6101 2.7905 5.6101 5.20157M14.3414 5.20157H15.484C17.3051 5.20157 18.2156 5.20157 18.7362 5.78321C19.2568 6.36485 19.1563 7.26981 18.9552 9.07975L18.6969 11.4045C18.2864 15.099 18.0811 16.9462 16.838 18.0589C15.5948 19.1716 13.7218 19.1716 9.97573 19.1716C6.22967 19.1716 4.35664 19.1716 3.11349 18.0589C1.87033 16.9462 1.66508 15.099 1.25459 11.4045L0.996279 9.07976C0.795174 7.26982 0.694622 6.36485 1.21521 5.78321C1.73581 5.20157 2.64634 5.20157 4.46742 5.20157H5.6101M14.3414 5.20157H5.6101M15.2145 8.69407H4.73697" stroke="white" stroke-width="1.5" stroke-linecap="round"/>
</svg>
