<svg width="62" height="62" viewBox="0 0 62 62" fill="none" xmlns="http://www.w3.org/2000/svg">
<path d="M1.53495 27.9764C0.875052 22.0537 0.545101 19.0923 2.25336 17.189C3.96163 15.2857 6.94946 15.2857 12.9251 15.2857H16.6747H45.3253H49.0749C55.0505 15.2857 58.0384 15.2857 59.7466 17.189C61.4549 19.0923 61.125 22.0537 60.465 27.9764L59.6174 35.5837C58.2704 47.6732 57.5969 53.7179 53.5177 57.359C49.4384 61 43.2923 61 31 61C18.7077 61 12.5616 61 8.48233 57.359C4.40306 53.7179 3.72956 47.6732 2.38256 35.5838L1.53495 27.9764Z" fill="#FBFBFB"/>
<path d="M45.3253 15.2857C45.3253 7.39593 38.9117 1 31 1C23.0883 1 16.6747 7.39593 16.6747 15.2857M45.3253 15.2857H49.0749C55.0505 15.2857 58.0384 15.2857 59.7466 17.189C61.4549 19.0923 61.1249 22.0537 60.465 27.9764L59.6174 35.5837C58.2704 47.6732 57.5969 53.7179 53.5177 57.359C49.4384 61 43.2923 61 31 61C18.7077 61 12.5616 61 8.48233 57.359C4.40306 53.7179 3.72956 47.6732 2.38256 35.5838L1.53495 27.9764C0.875052 22.0537 0.545101 19.0923 2.25336 17.189C3.96163 15.2857 6.94946 15.2857 12.9251 15.2857H16.6747M45.3253 15.2857H16.6747M48.1904 26.7143H13.8096" stroke="#949494" stroke-width="1.5" stroke-linecap="round"/>
</svg>
