<svg width="19" height="20" viewBox="0 0 19 20" fill="none" xmlns="http://www.w3.org/2000/svg">
<path fill-rule="evenodd" clip-rule="evenodd" d="M6.75033 0.75C6.75033 0.335786 6.41454 0 6.00033 0C5.58611 0 5.25033 0.335786 5.25033 0.75V1.06955C4.94117 1.12877 4.65143 1.20745 4.37201 1.31263C2.55303 1.99735 1.11747 3.43291 0.43275 5.25189C0.202793 5.86278 0.0996846 6.52761 0.0495115 7.33949C-3.90453e-06 8.14072 -2.176e-06 9.13535 2.93723e-08 10.4144V10.4399V10.4655C-2.176e-06 11.7445 -3.90453e-06 12.7392 0.0495115 13.5404C0.0996846 14.3523 0.202793 15.0171 0.43275 15.628C1.11747 17.447 2.55303 18.8825 4.37201 19.5673C4.98198 19.7969 5.64112 19.9002 6.44408 19.9505C7.23561 20 8.2155 20 9.47434 20H9.47437H9.4744H9.47443H9.47447H9.4745H9.47453H9.47456H9.47459H9.47462H9.50037H9.52612H9.52615H9.52618H9.52621H9.52625H9.52628H9.52631H9.52634H9.52637H9.5264C10.7852 20 11.7651 20 12.5567 19.9505C13.3596 19.9002 14.0188 19.7969 14.6287 19.5673C16.4477 18.8825 17.8833 17.447 18.568 15.628C18.798 15.0171 18.9011 14.3523 18.9512 13.5404C19.0007 12.7392 19.0007 11.7447 19.0007 10.4658V10.4658V10.4658V10.4657V10.4657V10.4657V10.4656V10.4656V10.4656V10.4655V10.4399V10.4143V10.4143V10.4143V10.4142V10.4142V10.4142V10.4141V10.4141V10.4141V10.4141C19.0007 9.13519 19.0007 8.14066 18.9512 7.33949C18.9011 6.52761 18.798 5.86278 18.568 5.25189C17.8833 3.43291 16.4477 1.99735 14.6287 1.31263C14.3493 1.20743 14.0595 1.12874 13.7503 1.06952V0.75C13.7503 0.335786 13.4145 0 13.0003 0C12.5861 0 12.2503 0.335786 12.2503 0.75V0.913051C11.5153 0.879879 10.6275 0.879881 9.52614 0.879883H9.50037H9.4746C8.37321 0.879881 7.48534 0.879879 6.75033 0.913058V0.75ZM12.2503 3.39302V2.41468C11.546 2.38016 10.6698 2.37988 9.50037 2.37988C8.33083 2.37988 7.45463 2.38016 6.75033 2.41469V3.39302C6.75033 3.80723 6.41454 4.14302 6.00033 4.14302C5.58611 4.14302 5.25033 3.80723 5.25033 3.39302V2.60603C5.12595 2.63843 5.01034 2.6751 4.90045 2.71647C3.48569 3.24902 2.36914 4.36557 1.83658 5.78033C1.68187 6.19132 1.59265 6.68776 1.54666 7.43201C1.50033 8.18156 1.5 9.12998 1.5 10.4399C1.5 11.7499 1.50033 12.6983 1.54666 13.4479C1.59265 14.1921 1.68187 14.6886 1.83658 15.0996C2.36914 16.5143 3.48569 17.6309 4.90045 18.1634C5.31237 18.3185 5.80454 18.4075 6.5378 18.4534C7.27705 18.4997 8.21023 18.5 9.50037 18.5C10.7905 18.5 11.7237 18.4997 12.4629 18.4534C13.1962 18.4075 13.6884 18.3185 14.1003 18.1634C15.5151 17.6309 16.6316 16.5143 17.1642 15.0996C17.3189 14.6886 17.4081 14.1921 17.4541 13.4479C17.5004 12.6983 17.5007 11.7499 17.5007 10.4399C17.5007 9.12998 17.5004 8.18156 17.4541 7.43201C17.4081 6.68776 17.3189 6.19132 17.1642 5.78033C16.6316 4.36557 15.5151 3.24902 14.1003 2.71647C13.9904 2.67508 13.8747 2.6384 13.7503 2.60599V3.39302C13.7503 3.80723 13.4145 4.14302 13.0003 4.14302C12.5861 4.14302 12.2503 3.80723 12.2503 3.39302ZM5.12527 6.16699C4.71106 6.16699 4.37527 6.50278 4.37527 6.91699C4.37527 7.33121 4.71106 7.66699 5.12527 7.66699H13.8756C14.2899 7.66699 14.6256 7.33121 14.6256 6.91699C14.6256 6.50278 14.2899 6.16699 13.8756 6.16699H5.12527ZM6.87621 11.3214C6.87621 11.808 6.48425 12.2024 6.00074 12.2024C5.51723 12.2024 5.12527 11.808 5.12527 11.3214C5.12527 10.8349 5.51723 10.4404 6.00074 10.4404C6.48425 10.4404 6.87621 10.8349 6.87621 11.3214ZM6.00074 15.7269C6.48425 15.7269 6.87621 15.3324 6.87621 14.8458C6.87621 14.3593 6.48425 13.9648 6.00074 13.9648C5.51723 13.9648 5.12527 14.3593 5.12527 14.8458C5.12527 15.3324 5.51723 15.7269 6.00074 15.7269ZM10.3764 14.8458C10.3764 15.3324 9.98447 15.7269 9.50096 15.7269C9.01745 15.7269 8.62549 15.3324 8.62549 14.8458C8.62549 14.3593 9.01745 13.9648 9.50096 13.9648C9.98447 13.9648 10.3764 14.3593 10.3764 14.8458ZM13.0012 15.7269C13.4847 15.7269 13.8766 15.3324 13.8766 14.8458C13.8766 14.3593 13.4847 13.9648 13.0012 13.9648C12.5177 13.9648 12.1257 14.3593 12.1257 14.8458C12.1257 15.3324 12.5177 15.7269 13.0012 15.7269ZM10.3764 11.3214C10.3764 11.808 9.98447 12.2024 9.50096 12.2024C9.01745 12.2024 8.62549 11.808 8.62549 11.3214C8.62549 10.8349 9.01745 10.4404 9.50096 10.4404C9.98447 10.4404 10.3764 10.8349 10.3764 11.3214ZM13.0012 12.2024C13.4847 12.2024 13.8766 11.808 13.8766 11.3214C13.8766 10.8349 13.4847 10.4404 13.0012 10.4404C12.5177 10.4404 12.1257 10.8349 12.1257 11.3214C12.1257 11.808 12.5177 12.2024 13.0012 12.2024Z" fill="#22272F"/>
</svg>
