<svg width="16" height="16" viewBox="0 0 16 16" fill="none" xmlns="http://www.w3.org/2000/svg">
<g clip-path="url(#clip0_288_3662)">
<path d="M15.5467 2.73333C15.1667 2.26667 14.6 2 14 2H4.82667L4.8 1.76667C4.68 0.76 3.82667 0 2.81333 0H2C1.63333 0 1.33333 0.3 1.33333 0.666667C1.33333 1.03333 1.63333 1.33333 2 1.33333H2.81333C3.15333 1.33333 3.43333 1.58667 3.47333 1.92L4.39333 9.72C4.59333 11.4 6.01333 12.6667 7.70667 12.6667H13.3333C13.7 12.6667 14 12.3667 14 12C14 11.6333 13.7 11.3333 13.3333 11.3333H7.70667C6.84667 11.3333 6.10667 10.78 5.82667 10H12.1067C13.6933 10 15.0667 8.87333 15.3733 7.32L15.96 4.39333C16.08 3.80667 15.9267 3.2 15.5467 2.73333ZM7.33333 14.6667C7.33333 15.4 6.73333 16 6 16C5.26667 16 4.66667 15.4 4.66667 14.6667C4.66667 13.9333 5.26667 13.3333 6 13.3333C6.73333 13.3333 7.33333 13.9333 7.33333 14.6667ZM13.3333 14.6667C13.3333 15.4 12.7333 16 12 16C11.2667 16 10.6667 15.4 10.6667 14.6667C10.6667 13.9333 11.2667 13.3333 12 13.3333C12.7333 13.3333 13.3333 13.9333 13.3333 14.6667ZM0 4C0 3.63333 0.3 3.33333 0.666667 3.33333H1.69333C2.06 3.33333 2.36 3.63333 2.36 4C2.36 4.36667 2.06 4.66667 1.69333 4.66667H0.666667C0.3 4.66667 0 4.36667 0 4ZM0 6.66667C0 6.3 0.3 6 0.666667 6H2C2.36667 6 2.66667 6.3 2.66667 6.66667C2.66667 7.03333 2.36667 7.33333 2 7.33333H0.666667C0.3 7.33333 0 7.03333 0 6.66667ZM3.33333 9.33333C3.33333 9.7 3.03333 10 2.66667 10H0.666667C0.3 10 0 9.7 0 9.33333C0 8.96667 0.3 8.66667 0.666667 8.66667H2.66667C3.03333 8.66667 3.33333 8.96667 3.33333 9.33333Z" fill="#707070"/>
</g>
<defs>
<clipPath id="clip0_288_3662">
<rect width="16" height="16" fill="white"/>
</clipPath>
</defs>
</svg>
