<svg width="41" height="40" viewBox="0 0 41 40" fill="none" xmlns="http://www.w3.org/2000/svg">
<rect x="0.5" width="40" height="40" rx="20" fill="#F6F6F6"/>
<path d="M25.4783 16.2846C25.2025 16.2296 24.9767 16.0571 24.86 15.8104C23.5683 13.0846 20.5742 11.5604 17.5817 12.1121C14.855 12.6121 12.7175 14.7888 12.2617 17.5296C12.1267 18.3388 12.1367 19.1488 12.2892 19.9379C12.3392 20.1954 12.2283 20.4821 12.0008 20.6888C11.0467 21.5563 10.5 22.7921 10.5 24.0804C10.5 26.6071 12.5558 28.6638 15.0833 28.6638H24.25C27.6967 28.6638 30.5 25.8604 30.5 22.4138C30.5 19.4429 28.3883 16.8646 25.4783 16.2846ZM24.25 26.9963H15.0833C13.475 26.9963 12.1667 25.6879 12.1667 24.0796C12.1667 23.2604 12.515 22.4729 13.1217 21.9213C13.7767 21.3254 14.0842 20.4438 13.9242 19.6188C13.8092 19.0254 13.8025 18.4146 13.9042 17.8013C14.24 15.7829 15.875 14.1171 17.88 13.7496C18.2008 13.6913 18.52 13.6629 18.835 13.6629C20.7617 13.6629 22.5058 14.7371 23.3533 16.5246C23.6975 17.2513 24.3533 17.7596 25.1517 17.9188C27.285 18.3446 28.8325 20.2346 28.8325 22.4138C28.8325 24.9404 26.7758 26.9971 24.2492 26.9971L24.25 26.9963ZM23.1008 20.5738C23.4267 20.8996 23.4267 21.4263 23.1008 21.7521C22.9383 21.9146 22.725 21.9963 22.5117 21.9963C22.2983 21.9963 22.085 21.9146 21.9225 21.7521L20.5 20.3296V24.4963C20.5 24.9571 20.1267 25.3296 19.6667 25.3296C19.2067 25.3296 18.8333 24.9571 18.8333 24.4963V20.3296L17.4108 21.7521C17.085 22.0779 16.5583 22.0779 16.2325 21.7521C15.9067 21.4263 15.9067 20.8996 16.2325 20.5738L18.4883 18.3179C18.81 17.9963 19.2325 17.8346 19.655 17.8321L19.6667 17.8296L19.6783 17.8321C20.1017 17.8346 20.5233 17.9963 20.845 18.3179L23.1008 20.5738Z" fill="#707070"/>
</svg>
