<svg width="16" height="17" viewBox="0 0 16 17" fill="none" xmlns="http://www.w3.org/2000/svg">
<path d="M0.784143 13.232C0.282213 13.7338 0.000151576 14.4144 0 15.1241L0 16.4977H1.37359C2.08332 16.4976 2.76392 16.2155 3.2657 15.7136L12.193 6.78625L9.71147 4.30469L0.784143 13.232Z" fill="black"/>
<path d="M15.4862 1.01447C15.3232 0.851371 15.1298 0.721988 14.9168 0.633712C14.7039 0.545437 14.4756 0.5 14.2451 0.5C14.0145 0.5 13.7863 0.545437 13.5733 0.633712C13.3603 0.721988 13.1669 0.851371 13.0039 1.01447L10.6582 3.36087L13.1398 5.84243L15.4862 3.49669C15.6493 3.33377 15.7786 3.1403 15.8669 2.92734C15.9552 2.71438 16.0006 2.48611 16.0006 2.25558C16.0006 2.02505 15.9552 1.79678 15.8669 1.58382C15.7786 1.37086 15.6493 1.17739 15.4862 1.01447Z" fill="black"/>
</svg>
