<svg width="16" height="16" viewBox="0 0 16 16" fill="none" xmlns="http://www.w3.org/2000/svg">
<g clip-path="url(#clip0_835_175)">
<path d="M5.33429 14H2.27363C2.1232 13.9996 2.00132 13.8778 2.00098 13.7273V2.27266C2.00135 2.12222 2.1232 2.00034 2.27363 2H5.33429C5.88657 2 6.33429 1.55228 6.33429 1C6.33429 0.447719 5.88657 0 5.33429 0H2.27363C1.01907 0.00146875 0.00244531 1.01812 0.000976562 2.27266V13.7273C0.00244531 14.9819 1.01907 15.9985 2.27363 16H5.33429C5.88657 16 6.33429 15.5523 6.33429 15C6.33429 14.4477 5.88657 14 5.33429 14Z" fill="#707070"/>
<path d="M15.122 5.87875L12.534 3.29275C12.1433 2.90228 11.5101 2.90244 11.1196 3.29309C10.7292 3.68375 10.7293 4.31697 11.12 4.70744L13.3946 6.98144L4.33398 7.00009C3.7817 7.00009 3.33398 7.44781 3.33398 8.00009C3.33398 8.55238 3.7817 9.00009 4.33398 9.00009L13.4313 8.98344L11.12 11.2948C10.7437 11.699 10.7663 12.3318 11.1705 12.7081C11.5548 13.0658 12.1501 13.0655 12.534 12.7074L15.12 10.1214C16.2916 8.94987 16.2916 7.05038 15.12 5.87881L15.12 5.87878L15.122 5.87875Z" fill="#707070"/>
</g>
<defs>
<clipPath id="clip0_835_175">
<rect width="16" height="16" fill="white"/>
</clipPath>
</defs>
</svg>
