<svg width="24" height="25" viewBox="0 0 24 25" fill="none" xmlns="http://www.w3.org/2000/svg">
<path d="M11.9931 23.1992C11.9931 23.1992 13.6229 23.3268 13.844 22.8972C14.108 22.3842 14.2115 21.7977 14.144 21.2202C14.0887 20.8081 13.9526 20.411 13.7435 20.0517C13.5371 19.697 13.261 19.3878 12.932 19.1427C11.8105 18.2998 11.0235 17.0872 10.7105 15.7197C8.14847 19.0782 9.13097 20.9847 10.358 22.6647C10.7436 23.1926 11.9931 23.1992 11.9931 23.1992C11.9931 23.1992 11.9975 24.2663 12.0004 24.9692C11.2153 24.9692 9.26624 24.5336 9.02897 24.4752C7.37147 24.0702 5.81147 23.2992 4.75397 22.0707C4.15452 21.3883 3.69301 20.5962 3.39497 19.7382C3.09353 18.8729 2.95964 17.9581 3.00047 17.0427C3.00047 17.0427 2.80097 13.3482 7.25597 9.72866C7.25597 9.72866 12.521 5.26166 10.694 1.95866C10.6266 1.79619 10.6067 1.61797 10.6364 1.44464C10.6662 1.2713 10.7444 1.10992 10.862 0.979161C10.9763 0.850961 11.1273 0.761035 11.2945 0.721589C11.4616 0.682143 11.6369 0.695086 11.7965 0.758661L12.0155 0.845661C13.9986 2.09922 15.5485 3.93195 16.4555 6.09566C17.3255 8.21516 17.3195 10.6857 16.7315 12.8862C17.219 12.4482 17.6255 11.9247 17.933 11.3367L17.9765 11.2407C18.2735 10.5252 19.208 10.7532 19.559 11.2212C19.688 11.4267 22.997 16.2357 21.2195 20.2932C20.5696 21.5225 19.6203 22.5682 18.4595 23.3337C17.4854 23.9801 16.3969 24.4347 15.2525 24.6732C15.0159 24.723 14.2836 24.9692 12.0004 24.9692C11.9975 24.2663 11.9931 23.1992 11.9931 23.1992ZM11.324 12.5382C11.464 12.4652 11.6263 12.4472 11.7789 12.4877C11.9316 12.5282 12.0636 12.6243 12.149 12.7572C12.209 12.8457 12.248 12.9462 12.2615 13.0542L12.329 13.5777C12.359 14.3442 12.35 15.1452 12.6485 15.8817C12.9575 16.6377 13.4375 17.3067 14.0465 17.8287C14.831 18.3449 15.4383 19.0894 15.7865 19.9617C16.1165 20.8077 16.1615 21.7467 15.9125 22.6212C16.6743 22.3809 17.3823 21.9953 17.9975 21.4857L18.152 21.3597C18.656 20.9442 19.0715 20.4252 19.3715 19.8342C19.673 19.2447 19.8545 18.5967 19.9025 17.9307C20 16.3932 19.4765 14.8497 18.662 13.4727C18.29 14.0127 17.777 14.4312 17.1845 14.6787C16.814 14.8362 16.421 14.9337 16.0205 14.9637C15.7911 14.9784 15.5623 14.9263 15.362 14.8137C15.1585 14.698 14.9917 14.5276 14.8805 14.3217C14.7884 14.1556 14.7358 13.9707 14.7267 13.781C14.7176 13.5914 14.7523 13.4022 14.828 13.2282C15.446 11.7702 15.638 10.1532 15.3755 8.58266C15.0647 6.78586 14.2042 5.12973 12.9125 3.84266C12.6785 7.15016 9.28697 10.2297 8.59097 10.8927C8.48308 10.9943 8.37098 11.0914 8.25497 11.1837C4.61597 14.1312 4.86497 16.8162 4.86497 16.9347C4.7927 18.0013 5.0319 19.0659 5.55347 19.9992C6.10097 20.9667 6.88847 21.7647 7.83347 22.3092C6.74297 19.9122 6.74297 17.0352 10.7675 12.9102L11.3255 12.5352L11.324 12.5382Z" fill="url(#paint0_linear_2978_2003)"/>
<path d="M11.324 12.5382C11.464 12.4652 11.6263 12.4472 11.7789 12.4877C11.9316 12.5282 12.0636 12.6243 12.149 12.7572C12.209 12.8457 12.248 12.9462 12.2615 13.0542L12.329 13.5777C12.359 14.3442 12.35 15.1452 12.6485 15.8817C12.9575 16.6377 13.4375 17.3067 14.0465 17.8287C14.831 18.3449 15.4383 19.0894 15.7865 19.9617C16.1165 20.8077 16.1615 21.7467 15.9125 22.6212C16.6743 22.3809 17.3823 21.9953 17.9975 21.4857L18.152 21.3597C18.656 20.9442 19.0715 20.4252 19.3715 19.8342C19.673 19.2447 19.8545 18.5967 19.9025 17.9307C20 16.3932 19.4765 14.8497 18.662 13.4727C18.29 14.0127 17.777 14.4312 17.1845 14.6787C16.814 14.8362 16.421 14.9337 16.0205 14.9637C15.7911 14.9784 15.5623 14.9263 15.362 14.8137C15.1585 14.698 14.9917 14.5276 14.8805 14.3217C14.7884 14.1556 14.7358 13.9707 14.7267 13.781C14.7176 13.5914 14.7523 13.4022 14.828 13.2282C15.446 11.7702 15.638 10.1532 15.3755 8.58266C15.0647 6.78586 14.2042 5.12973 12.9125 3.84266C12.6785 7.15016 9.28697 10.2297 8.59097 10.8927C8.48308 10.9943 8.37098 11.0914 8.25497 11.1837C4.61597 14.1312 4.86497 16.8162 4.86497 16.9347C4.7927 18.0013 5.0319 19.0659 5.55347 19.9992C6.10097 20.9667 6.88847 21.7647 7.83347 22.3092C6.74297 19.9122 6.74297 17.0352 10.7675 12.9102L11.3255 12.5352L11.324 12.5382Z" fill="url(#paint1_linear_2978_2003)"/>
<defs>
<linearGradient id="paint0_linear_2978_2003" x1="12.3754" y1="0.699219" x2="12.3754" y2="24.7" gradientUnits="userSpaceOnUse">
<stop stop-color="#FC5A40"/>
<stop offset="1" stop-color="#FC9A40"/>
</linearGradient>
<linearGradient id="paint1_linear_2978_2003" x1="12.3754" y1="0.699219" x2="12.3754" y2="24.7" gradientUnits="userSpaceOnUse">
<stop stop-color="#FC5A40"/>
<stop offset="1" stop-color="#FC9A40"/>
</linearGradient>
</defs>
</svg>
