<svg width="24" height="25" viewBox="0 0 24 25" fill="none" xmlns="http://www.w3.org/2000/svg">
<path d="M11.9931 23C11.9931 23 13.6229 23.1276 13.844 22.6979C14.108 22.1849 14.2115 21.5984 14.144 21.0209C14.0887 20.6089 13.9526 20.2118 13.7435 19.8524C13.5371 19.4978 13.261 19.1886 12.932 18.9434C11.8105 18.1006 11.0235 16.888 10.7105 15.5204C8.14847 18.8789 9.13097 20.7854 10.358 22.4654C10.7436 22.9933 11.9931 23 11.9931 23C11.9931 23 11.9975 24.0671 12.0004 24.77C11.2153 24.77 9.26624 24.3344 9.02897 24.2759C7.37147 23.8709 5.81147 23.0999 4.75397 21.8714C4.15452 21.1891 3.69301 20.3969 3.39497 19.5389C3.09353 18.6736 2.95964 17.7588 3.00047 16.8434C3.00047 16.8434 2.80097 13.1489 7.25597 9.52944C7.25597 9.52944 12.521 5.06244 10.694 1.75944C10.6266 1.59697 10.6067 1.41875 10.6364 1.24542C10.6662 1.07208 10.7444 0.910699 10.862 0.779943C10.9763 0.651742 11.1273 0.561817 11.2945 0.52237C11.4616 0.482924 11.6369 0.495867 11.7965 0.559443L12.0155 0.646443C13.9986 1.9 15.5485 3.73273 16.4555 5.89644C17.3255 8.01594 17.3195 10.4864 16.7315 12.6869C17.219 12.2489 17.6255 11.7254 17.933 11.1374L17.9765 11.0414C18.2735 10.3259 19.208 10.5539 19.559 11.0219C19.688 11.2274 22.997 16.0364 21.2195 20.0939C20.5696 21.3233 19.6203 22.369 18.4595 23.1344C17.4854 23.7808 16.3969 24.2355 15.2525 24.4739C15.0159 24.5238 14.2836 24.77 12.0004 24.77C11.9975 24.0671 11.9931 23 11.9931 23ZM11.324 12.3389C11.464 12.266 11.6263 12.2479 11.7789 12.2885C11.9316 12.329 12.0636 12.4251 12.149 12.5579C12.209 12.6464 12.248 12.7469 12.2615 12.8549L12.329 13.3784C12.359 14.1449 12.35 14.9459 12.6485 15.6824C12.9575 16.4384 13.4375 17.1074 14.0465 17.6294C14.831 18.1457 15.4383 18.8902 15.7865 19.7624C16.1165 20.6084 16.1615 21.5474 15.9125 22.4219C16.6743 22.1816 17.3823 21.796 17.9975 21.2864L18.152 21.1604C18.656 20.7449 19.0715 20.2259 19.3715 19.6349C19.673 19.0454 19.8545 18.3974 19.9025 17.7314C20 16.1939 19.4765 14.6504 18.662 13.2734C18.29 13.8134 17.777 14.2319 17.1845 14.4794C16.814 14.6369 16.421 14.7344 16.0205 14.7644C15.7911 14.7792 15.5623 14.7271 15.362 14.6144C15.1585 14.4988 14.9917 14.3283 14.8805 14.1224C14.7884 13.9564 14.7358 13.7714 14.7267 13.5818C14.7176 13.3922 14.7523 13.203 14.828 13.0289C15.446 11.5709 15.638 9.95394 15.3755 8.38344C15.0647 6.58664 14.2042 4.93051 12.9125 3.64344C12.6785 6.95094 9.28697 10.0304 8.59097 10.6934C8.48308 10.7951 8.37098 10.8922 8.25497 10.9844C4.61597 13.9319 4.86497 16.6169 4.86497 16.7354C4.7927 17.8021 5.0319 18.8667 5.55347 19.7999C6.10097 20.7674 6.88847 21.5654 7.83347 22.1099C6.74297 19.7129 6.74297 16.8359 10.7675 12.7109L11.3255 12.3359L11.324 12.3389Z" fill="url(#paint0_linear_3130_5496)"/>
<path d="M11.324 12.3389C11.464 12.266 11.6263 12.2479 11.7789 12.2885C11.9316 12.329 12.0636 12.4251 12.149 12.5579C12.209 12.6464 12.248 12.7469 12.2615 12.8549L12.329 13.3784C12.359 14.1449 12.35 14.9459 12.6485 15.6824C12.9575 16.4384 13.4375 17.1074 14.0465 17.6294C14.831 18.1457 15.4383 18.8902 15.7865 19.7624C16.1165 20.6084 16.1615 21.5474 15.9125 22.4219C16.6743 22.1816 17.3823 21.796 17.9975 21.2864L18.152 21.1604C18.656 20.7449 19.0715 20.2259 19.3715 19.6349C19.673 19.0454 19.8545 18.3974 19.9025 17.7314C20 16.1939 19.4765 14.6504 18.662 13.2734C18.29 13.8134 17.777 14.2319 17.1845 14.4794C16.814 14.6369 16.421 14.7344 16.0205 14.7644C15.7911 14.7792 15.5623 14.7271 15.362 14.6144C15.1585 14.4988 14.9917 14.3283 14.8805 14.1224C14.7884 13.9564 14.7358 13.7714 14.7267 13.5818C14.7176 13.3922 14.7523 13.203 14.828 13.0289C15.446 11.5709 15.638 9.95394 15.3755 8.38344C15.0647 6.58664 14.2042 4.93051 12.9125 3.64344C12.6785 6.95094 9.28697 10.0304 8.59097 10.6934C8.48308 10.7951 8.37098 10.8922 8.25497 10.9844C4.61597 13.9319 4.86497 16.6169 4.86497 16.7354C4.7927 17.8021 5.0319 18.8667 5.55347 19.7999C6.10097 20.7674 6.88847 21.5654 7.83347 22.1099C6.74297 19.7129 6.74297 16.8359 10.7675 12.7109L11.3255 12.3359L11.324 12.3389Z" fill="url(#paint1_linear_3130_5496)"/>
<defs>
<linearGradient id="paint0_linear_3130_5496" x1="12.3754" y1="0.5" x2="12.3754" y2="24.5008" gradientUnits="userSpaceOnUse">
<stop stop-color="#FC5A40"/>
<stop offset="1" stop-color="#FC9A40"/>
</linearGradient>
<linearGradient id="paint1_linear_3130_5496" x1="12.3754" y1="0.5" x2="12.3754" y2="24.5008" gradientUnits="userSpaceOnUse">
<stop stop-color="#FC5A40"/>
<stop offset="1" stop-color="#FC9A40"/>
</linearGradient>
</defs>
</svg>
