<svg width="24" height="24" viewBox="0 0 24 24" fill="none" xmlns="http://www.w3.org/2000/svg">
<g clip-path="url(#clip0_775_702)">
<g clip-path="url(#clip1_775_702)">
<path d="M5.31487 14.5156C5.76211 15.6254 6.41355 16.591 7.3193 17.3801C8.41872 18.3361 9.78437 18.933 11.2329 19.0906C12.6814 19.2482 14.1435 18.9591 15.4229 18.2619C15.4855 18.2281 15.5482 18.1993 15.6108 18.1648C15.6903 18.2274 15.7711 18.2901 15.8494 18.3527L19.5119 21.3418C18.848 21.9192 18.1007 22.3701 17.3164 22.7603C15.985 23.4201 14.5414 23.8237 13.0608 23.9502C13.0176 23.9539 12.9643 23.937 12.9417 23.9965H11.0664C10.849 23.907 10.6147 23.9245 10.388 23.8919C8.03716 23.5544 5.95191 22.6238 4.15418 21.0707C3.0407 20.1233 2.11951 18.971 1.44067 17.6763L5.31487 14.5156Z" fill="#28B346"/>
<path d="M5.31488 14.514L1.43943 17.6785C0.765443 16.4742 0.356409 15.1816 0.135921 13.8239C0.0883156 13.5277 0.102101 13.2227 0 12.9359V11.0584C0.103354 10.7722 0.0889414 10.4678 0.135294 10.1729C0.329815 8.91844 0.721554 7.70268 1.29599 6.57063C1.31166 6.54437 1.32948 6.51943 1.34924 6.49609C1.70628 6.78417 2.06519 7.071 2.42098 7.36033C3.36306 8.12561 4.30474 8.89131 5.24599 9.65743C5.04304 10.3538 4.89083 11.0565 4.87015 11.7867C4.85171 12.7153 5.0024 13.6394 5.31488 14.514Z" fill="#FABA01"/>
<path d="M19.5107 21.3426L15.8482 18.3535C15.7699 18.2909 15.6891 18.2283 15.6095 18.1656C16.6531 17.5262 17.5106 16.7002 18.137 15.6437C18.3121 15.3397 18.4697 15.0261 18.6093 14.7043C18.6889 14.5277 18.6369 14.4964 18.464 14.497C17.1436 14.502 15.8225 14.497 14.5021 14.497C13.83 14.497 13.1579 14.4926 12.4864 14.5001C12.3273 14.5001 12.2696 14.4607 12.2703 14.2922C12.2765 12.8468 12.2765 11.4014 12.2703 9.95603C12.2703 9.78694 12.3273 9.74938 12.4858 9.75001C16.1894 9.75377 19.8932 9.75377 23.5972 9.75001C23.7557 9.75001 23.8052 9.79947 23.8296 9.95603C24.4059 13.6134 23.52 16.8722 21.1719 19.7325C20.6864 20.3354 20.1285 20.8762 19.5107 21.3426Z" fill="#518EF7"/>
<path d="M5.2441 9.65959C4.30243 8.89347 3.36076 8.12777 2.41909 7.36249C2.0633 7.07316 1.70439 6.78633 1.34735 6.49825C1.82981 5.51617 2.46066 4.61423 3.21773 3.82414C5.17081 1.74748 7.56048 0.479935 10.3855 0.111696C13.768 -0.326683 16.8185 0.527533 19.5107 2.63551C19.6309 2.72945 19.6535 2.77454 19.5176 2.88601C18.3166 3.85921 17.1202 4.83784 15.9284 5.82189C15.8125 5.91771 15.7336 5.92148 15.6045 5.84695C11.7335 3.61811 6.90967 5.33781 5.31113 9.51243C5.29359 9.5619 5.26853 9.61012 5.2441 9.65959Z" fill="#F04336"/>
</g>
</g>
<defs>
<clipPath id="clip0_775_702">
<rect width="24" height="24" fill="white"/>
</clipPath>
<clipPath id="clip1_775_702">
<rect width="24" height="24" fill="white"/>
</clipPath>
</defs>
</svg>
