<svg width="24" height="24" viewBox="0 0 24 24" fill="none" xmlns="http://www.w3.org/2000/svg">
<g clip-path="url(#clip0_2345_872)">
<g clip-path="url(#clip1_2345_872)">
<path d="M5.31511 14.5156C5.76235 15.6254 6.41379 16.591 7.31955 17.3801C8.41897 18.3361 9.78461 18.933 11.2331 19.0906C12.6817 19.2482 14.1437 18.9591 15.4231 18.2619C15.4858 18.2281 15.5484 18.1993 15.611 18.1648C15.6906 18.2274 15.7714 18.2901 15.8497 18.3527L19.5122 21.3418C18.8482 21.9192 18.1009 22.3701 17.3167 22.7603C15.9852 23.4201 14.5416 23.8237 13.061 23.9502C13.0178 23.9539 12.9645 23.937 12.942 23.9965H11.0666C10.8492 23.907 10.615 23.9245 10.3882 23.8919C8.0374 23.5544 5.95216 22.6238 4.15443 21.0707C3.04094 20.1233 2.11976 18.971 1.44092 17.6763L5.31511 14.5156Z" fill="#28B346"/>
<path d="M5.31488 14.514L1.43943 17.6785C0.765443 16.4742 0.356409 15.1816 0.135921 13.8239C0.0883156 13.5277 0.102101 13.2227 0 12.9359V11.0584C0.103354 10.7722 0.0889414 10.4678 0.135294 10.1729C0.329815 8.91844 0.721554 7.70268 1.29599 6.57063C1.31166 6.54437 1.32948 6.51943 1.34924 6.49609C1.70628 6.78417 2.06519 7.071 2.42098 7.36033C3.36306 8.12561 4.30474 8.89131 5.24599 9.65743C5.04304 10.3538 4.89083 11.0565 4.87015 11.7867C4.85171 12.7153 5.0024 13.6394 5.31488 14.514Z" fill="#FABA01"/>
<path d="M19.5109 21.3426L15.8484 18.3535C15.7701 18.2909 15.6893 18.2283 15.6098 18.1656C16.6533 17.5262 17.5109 16.7002 18.1373 15.6437C18.3123 15.3397 18.47 15.0261 18.6096 14.7043C18.6891 14.5277 18.6371 14.4964 18.4642 14.497C17.1438 14.502 15.8228 14.497 14.5023 14.497C13.8302 14.497 13.1581 14.4926 12.4866 14.5001C12.3275 14.5001 12.2699 14.4607 12.2705 14.2922C12.2768 12.8468 12.2768 11.4014 12.2705 9.95603C12.2705 9.78694 12.3275 9.74938 12.486 9.75001C16.1896 9.75377 19.8934 9.75377 23.5975 9.75001C23.7559 9.75001 23.8054 9.79947 23.8299 9.95603C24.4061 13.6134 23.5202 16.8722 21.1721 19.7325C20.6866 20.3354 20.1287 20.8762 19.5109 21.3426Z" fill="#518EF7"/>
<path d="M5.24392 9.65959C4.30225 8.89347 3.36057 8.12777 2.41891 7.36249C2.06312 7.07316 1.70421 6.78633 1.34717 6.49825C1.82963 5.51617 2.46048 4.61423 3.21755 3.82414C5.17062 1.74748 7.5603 0.479935 10.3853 0.111696C13.7678 -0.326683 16.8183 0.527533 19.5105 2.63551C19.6308 2.72945 19.6533 2.77454 19.5174 2.88601C18.3164 3.85921 17.12 4.83784 15.9282 5.82189C15.8123 5.91771 15.7334 5.92148 15.6043 5.84695C11.7333 3.61811 6.90948 5.33781 5.31094 9.51243C5.29341 9.5619 5.26835 9.61012 5.24392 9.65959Z" fill="#F04336"/>
</g>
</g>
<defs>
<clipPath id="clip0_2345_872">
<rect width="24" height="24" fill="white"/>
</clipPath>
<clipPath id="clip1_2345_872">
<rect width="24" height="24" fill="white"/>
</clipPath>
</defs>
</svg>
