<svg width="36" height="36" viewBox="0 0 36 36" fill="none" xmlns="http://www.w3.org/2000/svg">
<g clip-path="url(#clip0_3130_6985)">
<g clip-path="url(#clip1_3130_6985)">
<path d="M8.25143 21.668C8.90365 23.2863 9.85367 24.6946 11.1746 25.8454C12.7779 27.2395 14.7694 28.11 16.8819 28.3398C18.9943 28.5697 21.1265 28.148 22.9923 27.1313C23.0836 27.082 23.175 27.0399 23.2663 26.9897C23.3823 27.081 23.5002 27.1724 23.6144 27.2637L28.9555 31.6228C27.9872 32.4649 26.8974 33.1225 25.7537 33.6914C23.812 34.6536 21.7068 35.2422 19.5475 35.4267C19.4845 35.4322 19.4068 35.4075 19.374 35.4943H16.639C16.322 35.3637 15.9804 35.3892 15.6497 35.3417C12.2214 34.8495 9.18045 33.4923 6.55877 31.2274C4.93493 29.8458 3.59154 28.1654 2.60156 26.2773L8.25143 21.668Z" fill="#28B346"/>
<path d="M8.25087 21.6655L2.59918 26.2804C1.61627 24.5241 1.01976 22.6391 0.698218 20.6591C0.628794 20.2271 0.648897 19.7823 0.5 19.364V16.626C0.650724 16.2086 0.629706 15.7648 0.697304 15.3346C0.98098 13.5052 1.55227 11.7323 2.38999 10.0814C2.41284 10.0431 2.43882 10.0067 2.46764 9.97266C2.98832 10.3928 3.51174 10.8111 4.03059 11.233C5.40447 12.349 6.77774 13.4657 8.1504 14.5829C7.85443 15.5985 7.63245 16.6232 7.60231 17.6881C7.57541 19.0423 7.79517 20.39 8.25087 21.6655Z" fill="#FABA01"/>
<path d="M28.9535 31.6247L23.6123 27.2655C23.4982 27.1742 23.3803 27.0829 23.2643 26.9915C24.7862 26.0591 26.0367 24.8544 26.9502 23.3137C27.2055 22.8704 27.4354 22.4131 27.639 21.9438C27.755 21.6862 27.6792 21.6406 27.427 21.6415C25.5014 21.6488 23.5749 21.6415 21.6493 21.6415C20.6691 21.6415 19.689 21.6351 18.7097 21.6461C18.4777 21.6461 18.3936 21.5885 18.3945 21.3429C18.4037 19.235 18.4037 17.1271 18.3945 15.0192C18.3945 14.7726 18.4777 14.7178 18.7088 14.7188C24.1099 14.7242 29.5113 14.7242 34.913 14.7188C35.1441 14.7188 35.2163 14.7909 35.2519 15.0192C36.0923 20.3528 34.8004 25.1053 31.376 29.2766C30.6681 30.1558 29.8544 30.9445 28.9535 31.6247Z" fill="#518EF7"/>
<path d="M8.1476 14.5869C6.77434 13.4696 5.40106 12.353 4.0278 11.237C3.50894 10.815 2.98553 10.3967 2.46484 9.97662C3.16844 8.54441 4.08842 7.22909 5.19248 6.07687C8.04072 3.04841 11.5257 1.1999 15.6455 0.66289C20.5782 0.0235874 25.0269 1.26932 28.953 4.34345C29.1284 4.48045 29.1613 4.5462 28.9631 4.70877C27.2116 6.12802 25.4669 7.55518 23.7288 8.99026C23.5598 9.12999 23.4447 9.13549 23.2566 9.0268C17.6112 5.77641 10.5766 8.2843 8.24535 14.3723C8.21977 14.4444 8.18323 14.5148 8.1476 14.5869Z" fill="#F04336"/>
</g>
</g>
<defs>
<clipPath id="clip0_3130_6985">
<rect width="35" height="35" fill="white" transform="translate(0.5 0.5)"/>
</clipPath>
<clipPath id="clip1_3130_6985">
<rect width="35" height="35" fill="white" transform="translate(0.5 0.5)"/>
</clipPath>
</defs>
</svg>
