<svg width="16" height="16" viewBox="0 0 16 16" fill="none" xmlns="http://www.w3.org/2000/svg">
<g clip-path="url(#clip0_835_170)">
<path d="M8 0C6.41775 0 4.87104 0.469192 3.55544 1.34824C2.23985 2.22729 1.21447 3.47672 0.608967 4.93853C0.00346629 6.40034 -0.15496 8.00887 0.153721 9.56072C0.462403 11.1126 1.22433 12.538 2.34315 13.6569C3.46197 14.7757 4.88743 15.5376 6.43928 15.8463C7.99113 16.155 9.59966 15.9965 11.0615 15.391C12.5233 14.7855 13.7727 13.7602 14.6518 12.4446C15.5308 11.129 16 9.58225 16 8C15.9977 5.87897 15.1541 3.84547 13.6543 2.34568C12.1545 0.845886 10.121 0.00229405 8 0ZM8 13.3333C7.86815 13.3333 7.73926 13.2942 7.62962 13.221C7.51999 13.1477 7.43454 13.0436 7.38408 12.9218C7.33363 12.8 7.32042 12.6659 7.34615 12.5366C7.37187 12.4073 7.43536 12.2885 7.5286 12.1953C7.62183 12.102 7.74062 12.0385 7.86994 12.0128C7.99926 11.9871 8.13331 12.0003 8.25513 12.0507C8.37694 12.1012 8.48106 12.1867 8.55432 12.2963C8.62757 12.4059 8.66667 12.5348 8.66667 12.6667C8.66667 12.8435 8.59643 13.013 8.47141 13.1381C8.34638 13.2631 8.17682 13.3333 8 13.3333ZM9.28667 8.33733C9.08993 8.46034 8.92906 8.63299 8.82022 8.8379C8.71138 9.04282 8.65842 9.27279 8.66667 9.50467V10C8.66667 10.1768 8.59643 10.3464 8.47141 10.4714C8.34638 10.5964 8.17682 10.6667 8 10.6667C7.82319 10.6667 7.65362 10.5964 7.5286 10.4714C7.40358 10.3464 7.33334 10.1768 7.33334 10V9.50467C7.32349 9.03428 7.43972 8.56983 7.66995 8.15953C7.90019 7.74923 8.23605 7.40802 8.64267 7.17133C8.88899 7.03567 9.0861 6.8256 9.20584 6.57116C9.32558 6.31672 9.3618 6.03094 9.30934 5.75467C9.25739 5.49147 9.12817 5.24973 8.93817 5.06033C8.74817 4.87092 8.50603 4.74246 8.24267 4.69133C8.05048 4.65576 7.85283 4.66288 7.6637 4.71217C7.47457 4.76147 7.29858 4.85175 7.14822 4.97661C6.99785 5.10147 6.87677 5.25787 6.79355 5.43472C6.71034 5.61157 6.66702 5.80455 6.66667 6C6.66667 6.17681 6.59643 6.34638 6.47141 6.47141C6.34638 6.59643 6.17682 6.66667 6 6.66667C5.82319 6.66667 5.65362 6.59643 5.5286 6.47141C5.40358 6.34638 5.33334 6.17681 5.33334 6C5.3335 5.52967 5.45806 5.06775 5.69437 4.6611C5.93069 4.25445 6.27035 3.91753 6.6789 3.68452C7.08746 3.45152 7.55037 3.33071 8.02069 3.33436C8.491 3.33801 8.95198 3.46598 9.35688 3.70529C9.76177 3.94461 10.0962 4.28676 10.3261 4.69702C10.5561 5.10729 10.6735 5.57109 10.6664 6.04136C10.6592 6.51164 10.5279 6.97166 10.2855 7.37477C10.0432 7.77788 9.69863 8.1104 9.28667 8.33733Z" fill="#707070"/>
</g>
<defs>
<clipPath id="clip0_835_170">
<rect width="16" height="16" fill="white"/>
</clipPath>
</defs>
</svg>
