<svg width="16" height="16" viewBox="0 0 16 16" fill="none" xmlns="http://www.w3.org/2000/svg">
<g clip-path="url(#clip0_288_3651)">
<path d="M15.9693 3.69531L10.3573 9.30731C9.73158 9.93148 8.88383 10.282 8 10.282C7.11617 10.282 6.26842 9.93148 5.64267 9.30731L0.0306667 3.69531C0.0213333 3.80065 0 3.89598 0 4.00065V12.0006C0.00105857 12.8844 0.352588 13.7316 0.97748 14.3565C1.60237 14.9814 2.4496 15.3329 3.33333 15.334H12.6667C13.5504 15.3329 14.3976 14.9814 15.0225 14.3565C15.6474 13.7316 15.9989 12.8844 16 12.0006V4.00065C16 3.89598 15.9787 3.80065 15.9693 3.69531Z" fill="#707070"/>
<path d="M9.41476 8.3653L15.5041 2.2753C15.2091 1.78618 14.7931 1.38133 14.2961 1.09979C13.7991 0.818251 13.2379 0.669529 12.6668 0.667969H3.33343C2.76224 0.669529 2.20109 0.818251 1.70411 1.09979C1.20713 1.38133 0.791079 1.78618 0.496094 2.2753L6.58543 8.3653C6.96114 8.73951 7.46982 8.94961 8.00009 8.94961C8.53037 8.94961 9.03905 8.73951 9.41476 8.3653Z" fill="#707070"/>
</g>
<defs>
<clipPath id="clip0_288_3651">
<rect width="16" height="16" fill="white"/>
</clipPath>
</defs>
</svg>
