<svg width="16" height="16" viewBox="0 0 16 16" fill="none" xmlns="http://www.w3.org/2000/svg">
<path fill-rule="evenodd" clip-rule="evenodd" d="M9.83792 1.16348C10.0559 0.945508 10.4093 0.945508 10.6272 1.16348L13.4405 3.97675H15.4419C15.7501 3.97675 16 4.22664 16 4.53489C16 4.84314 15.7501 5.09303 15.4419 5.09303H15.0368C14.8683 5.73009 14.6504 6.46457 14.3969 7.31916L13.6341 9.89071C13.3311 10.9127 13.1453 11.5392 12.8197 12.0486C12.2592 12.9256 11.3982 13.5683 10.398 13.8563C9.81698 14.0235 9.16355 14.0234 8.09762 14.0233H7.90238C6.83645 14.0234 6.18302 14.0235 5.60203 13.8563C4.60179 13.5683 3.7408 12.9256 3.18027 12.0486C2.85468 11.5392 2.66893 10.9127 2.36592 9.89073L1.60321 7.31962C1.34964 6.46484 1.13171 5.73021 0.96321 5.09303H0.55814C0.249888 5.09303 0 4.84314 0 4.53489C0 4.22664 0.249888 3.97675 0.55814 3.97675H2.74008L5.55335 1.16349C5.77131 0.94552 6.12471 0.94552 6.34268 1.16349C6.56064 1.38145 6.56064 1.73485 6.34268 1.95282L4.31874 3.97675H11.8619L9.83792 1.9528C9.61995 1.73484 9.61995 1.38144 9.83792 1.16348ZM7.06977 7.51164C7.06977 7.20339 6.81988 6.9535 6.51163 6.9535C6.20338 6.9535 5.95349 7.20339 5.95349 7.51164V10.4884C5.95349 10.7966 6.20338 11.0465 6.51163 11.0465C6.81988 11.0465 7.06977 10.7966 7.06977 10.4884V7.51164ZM10.0465 7.51164C10.0465 7.20339 9.79662 6.9535 9.48837 6.9535C9.18012 6.9535 8.93023 7.20339 8.93023 7.51164V10.4884C8.93023 10.7966 9.18012 11.0465 9.48837 11.0465C9.79662 11.0465 10.0465 10.7966 10.0465 10.4884V7.51164Z" fill="#707070"/>
</svg>
