<svg width="12" height="12" viewBox="0 0 12 12" fill="none" xmlns="http://www.w3.org/2000/svg">
<path d="M4.66852 1.09787C5.08761 -0.191962 6.91239 -0.191963 7.33148 1.09787L7.70631 2.25147C7.89373 2.8283 8.43127 3.21885 9.03779 3.21885H10.2507C11.607 3.21885 12.1708 4.95431 11.0736 5.75147L10.0923 6.46443C9.60166 6.82094 9.39634 7.45285 9.58376 8.02968L9.95859 9.18328C10.3777 10.4731 8.90141 11.5457 7.80421 10.7485L6.8229 10.0356C6.33222 9.67906 5.66778 9.67906 5.1771 10.0356L4.19579 10.7485C3.09859 11.5457 1.62232 10.4731 2.04141 9.18328L2.41624 8.02968C2.60366 7.45285 2.39834 6.82094 1.90766 6.46443L0.926351 5.75147C-0.170848 4.95431 0.393037 3.21885 1.74925 3.21885H2.96221C3.56873 3.21885 4.10627 2.8283 4.29369 2.25147L4.66852 1.09787Z" fill="#191919"/>
</svg>
