<svg width="24" height="24" viewBox="0 0 24 24" fill="none" xmlns="http://www.w3.org/2000/svg">
<g clip-path="url(#clip0_2345_864)">
<path d="M12.0001 24.0002C18.6276 24.0002 24.0002 18.6276 24.0002 12.0001C24.0002 5.37263 18.6276 0 12.0001 0C5.37263 0 0 5.37263 0 12.0001C0 18.6276 5.37263 24.0002 12.0001 24.0002Z" fill="#28A7E7"/>
<path d="M17.5023 7.39767C17.4823 7.71032 17.4423 8.03077 17.4009 8.35122C17.2551 9.501 17.0759 10.6458 16.8912 11.7896C16.7104 12.9097 16.5196 14.0288 16.3187 15.1467C16.2403 15.579 16.1735 16.0134 16.0699 16.4409C16.0313 16.6029 15.9739 16.7599 15.8989 16.9086C15.6832 17.3336 15.395 17.4687 14.9309 17.3674C14.6309 17.302 14.373 17.153 14.1238 16.9848C12.9729 16.2073 11.8226 15.4291 10.6727 14.65C10.5126 14.5412 10.361 14.4214 10.2432 14.2646C10.0878 14.0575 10.0764 13.8445 10.211 13.6227C10.307 13.4642 10.436 13.334 10.5666 13.2052C11.321 12.4607 12.1131 11.7562 12.8784 11.023C13.2971 10.6218 13.7185 10.2243 14.1148 9.79965C14.1692 9.74124 14.2194 9.67963 14.2694 9.61642C14.3294 9.54061 14.3188 9.4598 14.2726 9.38338C14.2292 9.31137 14.1576 9.30077 14.0798 9.30937C13.9944 9.31877 13.9222 9.35878 13.8512 9.40319C12.8874 10.0047 11.9523 10.6496 11.0073 11.2797C10.2786 11.7658 9.55488 12.2598 8.82696 12.7455C8.51091 12.9563 8.17186 13.116 7.7858 13.1496C7.50575 13.174 7.23531 13.1114 6.96567 13.0496C6.30956 12.8997 5.67126 12.6879 5.03356 12.4757C4.89646 12.4332 4.76691 12.3693 4.6497 12.2864C4.42206 12.1192 4.40346 11.8902 4.60369 11.6918C4.77732 11.5197 4.99415 11.4149 5.21439 11.3195C7.20217 10.4582 9.19055 9.59802 11.1795 8.73908C12.653 8.10578 14.1306 7.48149 15.6324 6.917C15.9725 6.78938 16.3125 6.66596 16.6746 6.61055C16.7701 6.59482 16.8675 6.59348 16.9634 6.60655C17.3051 6.65656 17.4537 6.81598 17.4891 7.16763C17.4957 7.24084 17.4973 7.31486 17.5023 7.39767Z" fill="#FEFEFE"/>
</g>
<defs>
<clipPath id="clip0_2345_864">
<rect width="24" height="24" fill="white"/>
</clipPath>
</defs>
</svg>
