<svg width="36" height="36" viewBox="0 0 36 36" fill="none" xmlns="http://www.w3.org/2000/svg">
<g clip-path="url(#clip0_3130_2957)">
<path d="M18.0001 35.5003C27.6652 35.5003 35.5003 27.6652 35.5003 18.0001C35.5003 8.33508 27.6652 0.5 18.0001 0.5C8.33508 0.5 0.5 8.33508 0.5 18.0001C0.5 27.6652 8.33508 35.5003 18.0001 35.5003Z" fill="#28A7E7"/>
<path d="M26.024 11.2878C25.9948 11.7437 25.9365 12.2111 25.8761 12.6784C25.6635 14.3551 25.4021 16.0246 25.1328 17.6926C24.8691 19.3262 24.5908 20.9582 24.2979 22.5884C24.1836 23.2188 24.0862 23.8524 23.9351 24.4758C23.8788 24.7121 23.7951 24.941 23.6856 25.1579C23.3712 25.7777 22.9508 25.9746 22.274 25.827C21.8365 25.7317 21.4605 25.5143 21.097 25.269C19.4187 24.1352 17.741 23.0002 16.0641 21.8641C15.8307 21.7054 15.6096 21.5307 15.4378 21.302C15.2111 21.0001 15.1945 20.6894 15.3908 20.3659C15.5308 20.1348 15.719 19.9449 15.9095 19.7571C17.0095 18.6713 18.1647 17.6439 19.2808 16.5748C19.8913 15.9896 20.506 15.41 21.0839 14.7907C21.1632 14.7055 21.2364 14.6156 21.3094 14.5235C21.3969 14.4129 21.3814 14.295 21.314 14.1836C21.2507 14.0786 21.1463 14.0631 21.0328 14.0757C20.9082 14.0894 20.8029 14.1477 20.6994 14.2125C19.2939 15.0897 17.9302 16.0302 16.5521 16.9491C15.4894 17.6579 14.434 18.3784 13.3724 19.0867C12.9115 19.3942 12.4171 19.627 11.8541 19.676C11.4457 19.7116 11.0513 19.6203 10.658 19.5301C9.70122 19.3116 8.77037 19.0027 7.84039 18.6932C7.64044 18.6312 7.45152 18.5381 7.28059 18.4172C6.94862 18.1734 6.92149 17.8394 7.2135 17.55C7.4667 17.2991 7.78292 17.1462 8.10409 17.0071C11.0029 15.751 13.9027 14.4966 16.8033 13.244C18.952 12.3204 21.1069 11.41 23.2971 10.5868C23.793 10.4007 24.2889 10.2207 24.8169 10.1399C24.9562 10.117 25.0982 10.115 25.2381 10.1341C25.7364 10.207 25.9531 10.4395 26.0048 10.9523C26.0144 11.0591 26.0167 11.167 26.024 11.2878Z" fill="#FEFEFE"/>
</g>
<defs>
<clipPath id="clip0_3130_2957">
<rect width="35" height="35" fill="white" transform="translate(0.5 0.5)"/>
</clipPath>
</defs>
</svg>
