<svg width="24" height="24" viewBox="0 0 24 24" fill="none" xmlns="http://www.w3.org/2000/svg">
<g clip-path="url(#clip0_800_4)">
<path d="M12.0001 24.0002C18.6276 24.0002 24.0002 18.6276 24.0002 12.0001C24.0002 5.37263 18.6276 0 12.0001 0C5.37263 0 0 5.37263 0 12.0001C0 18.6276 5.37263 24.0002 12.0001 24.0002Z" fill="#28A7E7"/>
<path d="M17.5022 7.39767C17.4822 7.71032 17.4422 8.03077 17.4008 8.35122C17.255 9.501 17.0757 10.6458 16.8911 11.7896C16.7103 12.9097 16.5195 14.0288 16.3186 15.1467C16.2402 15.579 16.1734 16.0134 16.0698 16.4409C16.0312 16.6029 15.9738 16.7599 15.8988 16.9086C15.6831 17.3336 15.3949 17.4687 14.9308 17.3674C14.6308 17.302 14.3729 17.153 14.1237 16.9848C12.9728 16.2073 11.8224 15.4291 10.6725 14.65C10.5125 14.5412 10.3609 14.4214 10.2431 14.2646C10.0876 14.0575 10.0762 13.8445 10.2109 13.6227C10.3069 13.4642 10.4359 13.334 10.5665 13.2052C11.3208 12.4607 12.113 11.7562 12.8783 11.023C13.2969 10.6218 13.7184 10.2243 14.1147 9.79965C14.1691 9.74124 14.2193 9.67963 14.2693 9.61642C14.3293 9.54061 14.3187 9.4598 14.2725 9.38338C14.2291 9.31137 14.1575 9.30077 14.0797 9.30937C13.9943 9.31877 13.922 9.35878 13.851 9.40319C12.8873 10.0047 11.9521 10.6496 11.0072 11.2797C10.2785 11.7658 9.55476 12.2598 8.82684 12.7455C8.51079 12.9563 8.17174 13.116 7.78567 13.1496C7.50563 13.174 7.23519 13.1114 6.96554 13.0496C6.30944 12.8997 5.67114 12.6879 5.03344 12.4757C4.89633 12.4332 4.76679 12.3693 4.64958 12.2864C4.42194 12.1192 4.40334 11.8902 4.60357 11.6918C4.7772 11.5197 4.99403 11.4149 5.21427 11.3195C7.20205 10.4582 9.19043 9.59802 11.1794 8.73908C12.6528 8.10578 14.1305 7.48149 15.6323 6.917C15.9724 6.78938 16.3124 6.66596 16.6745 6.61055C16.77 6.59482 16.8674 6.59348 16.9633 6.60655C17.305 6.65656 17.4536 6.81598 17.489 7.16763C17.4956 7.24084 17.4972 7.31486 17.5022 7.39767Z" fill="#FEFEFE"/>
</g>
<defs>
<clipPath id="clip0_800_4">
<rect width="24" height="24" fill="white"/>
</clipPath>
</defs>
</svg>
