<svg width="36" height="36" viewBox="0 0 36 36" fill="none" xmlns="http://www.w3.org/2000/svg">
<g clip-path="url(#clip0_3130_1442)">
<path d="M18.0001 35.5003C27.6652 35.5003 35.5003 27.6652 35.5003 18.0001C35.5003 8.33508 27.6652 0.5 18.0001 0.5C8.33508 0.5 0.5 8.33508 0.5 18.0001C0.5 27.6652 8.33508 35.5003 18.0001 35.5003Z" fill="#0077FE"/>
<path d="M23.4926 17.9679C23.5036 17.997 23.5279 17.9997 23.5465 18.0087C24.7288 18.5866 25.7522 19.3771 26.646 20.3369C27.8743 21.656 28.7338 23.1838 29.2244 24.9203C29.2446 24.9911 29.2405 25.013 29.1579 25.0127C27.8851 25.0104 26.6122 25.0104 25.3394 25.0127C25.2755 25.0127 25.2519 24.9911 25.2326 24.9322C24.8931 23.9138 24.384 22.9912 23.667 22.1901C22.6481 21.0504 21.3946 20.3232 19.882 20.0565C19.7688 20.0367 19.6536 20.0274 19.5404 20.0075C19.4678 19.9944 19.443 20.0075 19.443 20.0907C19.4459 21.2867 19.4466 22.4827 19.445 23.6787C19.445 24.0956 19.445 24.5124 19.445 24.9296C19.445 24.9897 19.4354 25.0133 19.3663 25.0139C18.6746 25.018 17.9839 24.9996 17.2951 24.9211C15.7167 24.7412 14.2135 24.3158 12.8211 23.5355C11.6429 22.875 10.6076 21.987 9.77535 20.9232C8.91713 19.8342 8.28761 18.6213 7.82379 17.3194C7.46999 16.314 7.20936 15.2783 7.04521 14.2252C6.8802 13.1826 6.78586 12.13 6.76283 11.0747C6.76078 10.9971 6.78208 10.9816 6.85559 10.9816C8.07651 10.984 9.29723 10.984 10.5178 10.9816C10.584 10.9816 10.6129 10.9904 10.614 11.0677C10.623 11.6738 10.6632 12.279 10.7345 12.881C10.9288 14.5207 11.3217 16.1018 12.1292 17.5583C12.6143 18.4334 13.2278 19.2027 14.0276 19.8138C14.5285 20.2034 15.0985 20.4947 15.7076 20.6726C15.8196 20.7047 15.8199 20.7038 15.8199 20.5883V15.3375C15.8199 13.9167 15.8193 12.4957 15.8182 11.0747C15.8182 11.0012 15.8348 10.9805 15.9109 10.9805C17.0583 10.9832 18.205 10.9832 19.3508 10.9805C19.4261 10.9805 19.4445 10.9994 19.4445 11.0744C19.4421 12.8636 19.4412 14.6521 19.4415 16.4399C19.4415 16.5075 19.4462 16.5323 19.5291 16.5207C20.188 16.4276 20.7814 16.1706 21.3345 15.8109C22.2945 15.1884 23.0474 14.3626 23.6682 13.4104C24.1471 12.6812 24.515 11.8849 24.7601 11.0476C24.7743 10.9974 24.7962 10.9811 24.8499 10.9811C26.0103 10.9828 27.1707 10.9828 28.3309 10.9811C28.4068 10.9811 28.4012 11.0117 28.3913 11.063C28.196 12.0929 27.8306 13.0831 27.3102 13.993C26.5025 15.4272 25.3866 16.6643 24.043 17.6152C23.8651 17.7403 23.6795 17.8558 23.4926 17.9679Z" fill="#FEFEFE"/>
</g>
<defs>
<clipPath id="clip0_3130_1442">
<rect width="35" height="35" fill="white" transform="translate(0.5 0.5)"/>
</clipPath>
</defs>
</svg>
