<svg width="24" height="24" viewBox="0 0 24 24" fill="none" xmlns="http://www.w3.org/2000/svg">
<g clip-path="url(#clip0_2345_860)">
<path d="M12.0001 24.0002C18.6276 24.0002 24.0002 18.6276 24.0002 12.0001C24.0002 5.37263 18.6276 0 12.0001 0C5.37263 0 0 5.37263 0 12.0001C0 18.6276 5.37263 24.0002 12.0001 24.0002Z" fill="#0077FE"/>
<path d="M15.7663 11.9789C15.7739 11.9989 15.7905 12.0007 15.8033 12.0069C16.6141 12.4031 17.3158 12.9452 17.9287 13.6033C18.7709 14.5079 19.3603 15.5555 19.6968 16.7462C19.7106 16.7948 19.7078 16.8098 19.6512 16.8096C18.7783 16.808 17.9055 16.808 17.0327 16.8096C16.9889 16.8096 16.9727 16.7948 16.9595 16.7544C16.7267 16.0561 16.3776 15.4234 15.886 14.8741C15.1872 14.0926 14.3277 13.5939 13.2905 13.4111C13.2129 13.3975 13.1339 13.3911 13.0563 13.3775C13.0065 13.3685 12.9895 13.3775 12.9895 13.4345C12.9915 14.2546 12.992 15.0747 12.9909 15.8949C12.9909 16.1807 12.9909 16.4666 12.9909 16.7526C12.9909 16.7938 12.9843 16.81 12.9369 16.8104C12.4626 16.8132 11.9889 16.8006 11.5167 16.7468C10.4343 16.6234 9.40353 16.3317 8.44878 15.7967C7.64088 15.3437 6.93097 14.7349 6.36025 14.0054C5.77176 13.2587 5.34009 12.4269 5.02204 11.5342C4.77943 10.8448 4.60072 10.1346 4.48816 9.41245C4.37501 8.69752 4.31032 7.97576 4.29452 7.25211C4.29312 7.1989 4.30773 7.1883 4.35814 7.1883C5.19533 7.1899 6.0324 7.1899 6.86933 7.1883C6.91474 7.1883 6.93454 7.1943 6.93534 7.2473C6.94147 7.66292 6.96904 8.07794 7.01796 8.4907C7.15118 9.61508 7.42062 10.6993 7.97431 11.698C8.30696 12.2981 8.72763 12.8256 9.27611 13.2447C9.61958 13.5118 10.0104 13.7116 10.4281 13.8336C10.5049 13.8556 10.5051 13.855 10.5051 13.7757V10.1752C10.5051 9.20088 10.5047 8.22653 10.5039 7.25211C10.5039 7.2017 10.5153 7.1875 10.5675 7.1875C11.3543 7.18937 12.1406 7.18937 12.9263 7.1875C12.9779 7.1875 12.9905 7.2005 12.9905 7.2519C12.9889 8.47877 12.9882 9.70516 12.9885 10.9311C12.9885 10.9775 12.9917 10.9945 13.0485 10.9865C13.5004 10.9227 13.9072 10.7465 14.2865 10.4998C14.9448 10.073 15.4611 9.50666 15.8868 8.85376C16.2151 8.3537 16.4675 7.80767 16.6355 7.2335C16.6453 7.1991 16.6603 7.1879 16.6971 7.1879C17.4928 7.1891 18.2885 7.1891 19.0841 7.1879C19.1361 7.1879 19.1323 7.2089 19.1255 7.24411C18.9916 7.95031 18.741 8.62929 18.3842 9.25323C17.8303 10.2367 17.0651 11.085 16.1438 11.737C16.0218 11.8228 15.8946 11.902 15.7663 11.9789Z" fill="#FEFEFE"/>
</g>
<defs>
<clipPath id="clip0_2345_860">
<rect width="24" height="24" fill="white"/>
</clipPath>
</defs>
</svg>
