<svg width="24" height="24" viewBox="0 0 24 24" fill="none" xmlns="http://www.w3.org/2000/svg">
<g clip-path="url(#clip0_775_609)">
<path d="M12.0001 24.0002C18.6276 24.0002 24.0002 18.6276 24.0002 12.0001C24.0002 5.37263 18.6276 0 12.0001 0C5.37263 0 0 5.37263 0 12.0001C0 18.6276 5.37263 24.0002 12.0001 24.0002Z" fill="#0077FE"/>
<path d="M15.7665 11.9789C15.7741 11.9989 15.7907 12.0007 15.8035 12.0069C16.6142 12.4031 17.3159 12.9452 17.9288 13.6033C18.7711 14.5079 19.3604 15.5555 19.6969 16.7462C19.7107 16.7948 19.7079 16.8098 19.6513 16.8096C18.7785 16.808 17.9057 16.808 17.0329 16.8096C16.9891 16.8096 16.9729 16.7948 16.9597 16.7544C16.7268 16.0561 16.3778 15.4234 15.8861 14.8741C15.1874 14.0926 14.3278 13.5939 13.2907 13.4111C13.2131 13.3975 13.134 13.3911 13.0564 13.3775C13.0066 13.3685 12.9896 13.3775 12.9896 13.4345C12.9916 14.2546 12.9921 15.0747 12.991 15.8949C12.991 16.1807 12.991 16.4666 12.991 16.7526C12.991 16.7938 12.9844 16.81 12.937 16.8104C12.4627 16.8132 11.9891 16.8006 11.5168 16.7468C10.4344 16.6234 9.40366 16.3317 8.4489 15.7967C7.641 15.3437 6.93109 14.7349 6.36037 14.0054C5.77188 13.2587 5.34021 12.4269 5.02216 11.5342C4.77955 10.8448 4.60084 10.1346 4.48828 9.41245C4.37513 8.69752 4.31044 7.97576 4.29465 7.25211C4.29325 7.1989 4.30785 7.1883 4.35826 7.1883C5.19546 7.1899 6.03252 7.1899 6.86945 7.1883C6.91486 7.1883 6.93466 7.1943 6.93546 7.2473C6.94159 7.66292 6.96916 8.07794 7.01808 8.4907C7.1513 9.61508 7.42074 10.6993 7.97443 11.698C8.30708 12.2981 8.72775 12.8256 9.27624 13.2447C9.6197 13.5118 10.0106 13.7116 10.4282 13.8336C10.505 13.8556 10.5052 13.855 10.5052 13.7757V10.1752C10.5052 9.20088 10.5048 8.22653 10.504 7.25211C10.504 7.2017 10.5154 7.1875 10.5676 7.1875C11.3544 7.18937 12.1407 7.18937 12.9264 7.1875C12.978 7.1875 12.9906 7.2005 12.9906 7.2519C12.989 8.47877 12.9884 9.70516 12.9886 10.9311C12.9886 10.9775 12.9918 10.9945 13.0486 10.9865C13.5005 10.9227 13.9074 10.7465 14.2866 10.4998C14.9449 10.073 15.4612 9.50666 15.8869 8.85376C16.2153 8.3537 16.4676 7.80767 16.6356 7.2335C16.6454 7.1991 16.6604 7.1879 16.6972 7.1879C17.4929 7.1891 18.2886 7.1891 19.0842 7.1879C19.1362 7.1879 19.1324 7.2089 19.1256 7.24411C18.9917 7.95031 18.7412 8.62929 18.3843 9.25323C17.8304 10.2367 17.0652 11.085 16.1439 11.737C16.0219 11.8228 15.8947 11.902 15.7665 11.9789Z" fill="#FEFEFE"/>
</g>
<defs>
<clipPath id="clip0_775_609">
<rect width="24" height="24" fill="white"/>
</clipPath>
</defs>
</svg>
