<svg width="24" height="24" viewBox="0 0 24 24" fill="none" xmlns="http://www.w3.org/2000/svg">
<g clip-path="url(#clip0_2345_868)">
<path d="M12.0165 24C5.45901 24.0125 0.0703144 18.7407 0.00069133 12.1299C-0.069635 5.48499 5.23466 0.135607 11.7505 0.00255121C18.4501 -0.134162 23.9817 5.24096 24 11.9694C24.0181 18.618 18.6354 23.9943 12.0165 24ZM6.54316 19.1242C6.56102 19.1272 6.56341 19.128 6.56566 19.128C7.43986 19.128 8.31402 19.1288 9.18813 19.1303C9.22934 19.1303 9.24566 19.1089 9.26408 19.0813C10.4425 17.3201 11.6212 15.5591 12.8004 13.7983C12.8285 13.7561 12.8308 13.737 12.7848 13.7065C12.4687 13.4968 12.1551 13.2835 11.8403 13.0719C11.3813 12.7635 10.9236 12.453 10.5124 12.0811C10.1478 11.7514 9.83119 11.3833 9.62978 10.9296C9.33244 10.2598 9.25818 9.55712 9.37126 8.83966C9.47548 8.1786 9.82135 7.66199 10.3901 7.30206C10.9047 6.97631 11.4785 6.8486 12.077 6.81161C12.5312 6.78348 12.986 6.80261 13.4413 6.79881C13.551 6.79783 13.5375 6.78221 13.5375 6.89572C13.5375 10.9386 13.5375 14.9814 13.5375 19.0242C13.5375 19.13 13.527 19.1153 13.6254 19.1153C14.3941 19.1153 15.1629 19.1145 15.9321 19.1175C16.0025 19.1175 16.0198 19.1011 16.0198 19.0301C16.0178 14.338 16.0178 9.64596 16.0198 4.95403C16.0198 4.88652 16.0043 4.86964 15.9354 4.86964C14.7914 4.87208 13.6477 4.87255 12.5042 4.87105C12.0259 4.87105 11.549 4.89594 11.0751 4.96725C10.3782 5.07204 9.70869 5.26262 9.08588 5.60018C8.21172 6.07319 7.56683 6.75563 7.19761 7.68477C6.84697 8.56666 6.80378 9.48032 6.93895 10.4079C7.07581 11.3428 7.48356 12.152 8.10637 12.8569C8.58234 13.3961 9.1344 13.8478 9.71572 14.2663C9.76537 14.302 9.76818 14.3225 9.73443 14.3726C8.69022 15.9249 7.64704 17.478 6.6049 19.0318C6.58535 19.0598 6.56679 19.0885 6.54316 19.1242Z" fill="#FB3F1D"/>
<path d="M6.54297 19.1259C6.5666 19.0902 6.58516 19.0615 6.60415 19.0333C7.64685 17.4799 8.69003 15.9268 9.73367 14.374C9.76743 14.324 9.76462 14.3037 9.71497 14.2677C9.13365 13.8493 8.58159 13.3975 8.10562 12.8584C7.48295 12.1532 7.07519 11.3443 6.9382 10.4094C6.80261 9.48107 6.84621 8.56811 7.19686 7.68622C7.56621 6.75708 8.21097 6.07464 9.08512 5.60163C9.70793 5.26478 10.3774 5.07405 11.0744 4.9687C11.5482 4.89739 12.0248 4.87222 12.5034 4.8725C13.6474 4.87353 14.7911 4.87306 15.9346 4.87109C16.0028 4.87109 16.019 4.88769 16.019 4.95548C16.0171 9.64742 16.0171 14.3394 16.019 19.0316C16.019 19.1026 16.002 19.119 15.9314 19.1189C15.1627 19.116 14.3939 19.1172 13.6247 19.1168C13.5262 19.1168 13.5368 19.1309 13.5368 19.0257C13.5368 14.9828 13.5368 10.94 13.5368 6.89717C13.5368 6.78367 13.5508 6.79872 13.4406 6.80026C12.986 6.80406 12.5311 6.78507 12.0762 6.81306C11.4778 6.85005 10.9039 6.97777 10.3894 7.30351C9.82074 7.66344 9.47515 8.18005 9.37051 8.84111C9.25799 9.55843 9.33169 10.2617 9.62903 10.931C9.83044 11.3848 10.1471 11.7529 10.5116 12.0826C10.9229 12.4547 11.3806 12.765 11.8395 13.0733C12.1543 13.285 12.468 13.4982 12.784 13.7079C12.83 13.7384 12.8278 13.7579 12.7996 13.7998C11.6201 15.5603 10.4413 17.3213 9.26333 19.0828C9.24491 19.1109 9.22859 19.1317 9.18738 19.1317C8.31327 19.1297 7.43912 19.129 6.56491 19.1295C6.56322 19.1297 6.56083 19.1289 6.54297 19.1259Z" fill="#FEFEFE"/>
</g>
<defs>
<clipPath id="clip0_2345_868">
<rect width="24" height="24" fill="white"/>
</clipPath>
</defs>
</svg>
