<svg width="24" height="24" viewBox="0 0 24 24" fill="none" xmlns="http://www.w3.org/2000/svg">
<g clip-path="url(#clip0_775_78)">
<path d="M12.0164 24C5.45888 24.0125 0.0701924 18.7407 0.00056926 12.1299C-0.0697571 5.48499 5.23454 0.135607 11.7504 0.00255121C18.45 -0.134162 23.9816 5.24096 23.9999 11.9694C24.018 18.618 18.6352 23.9943 12.0164 24ZM6.54304 19.1242C6.5609 19.1272 6.56329 19.128 6.56554 19.128C7.43974 19.128 8.3139 19.1288 9.18801 19.1303C9.22922 19.1303 9.24553 19.1089 9.26396 19.0813C10.4423 17.3201 11.6211 15.5591 12.8003 13.7983C12.8284 13.7561 12.8306 13.737 12.7846 13.7065C12.4686 13.4968 12.1549 13.2835 11.8402 13.0719C11.3812 12.7635 10.9235 12.453 10.5123 12.0811C10.1477 11.7514 9.83107 11.3833 9.62966 10.9296C9.33232 10.2598 9.25805 9.55712 9.37114 8.83966C9.47536 8.1786 9.82123 7.66199 10.39 7.30206C10.9045 6.97631 11.4784 6.8486 12.0769 6.81161C12.531 6.78348 12.9859 6.80261 13.4412 6.79881C13.5509 6.79783 13.5374 6.78221 13.5374 6.89572C13.5374 10.9386 13.5374 14.9814 13.5374 19.0242C13.5374 19.13 13.5269 19.1153 13.6253 19.1153C14.394 19.1153 15.1628 19.1145 15.932 19.1175C16.0024 19.1175 16.0197 19.1011 16.0197 19.0301C16.0177 14.338 16.0177 9.64596 16.0197 4.95403C16.0197 4.88652 16.0042 4.86964 15.9353 4.86964C14.7913 4.87208 13.6475 4.87255 12.504 4.87105C12.0258 4.87105 11.5489 4.89594 11.075 4.96725C10.3781 5.07204 9.70856 5.26262 9.08575 5.60018C8.2116 6.07319 7.5667 6.75563 7.19749 7.68477C6.84684 8.56666 6.80366 9.48032 6.93883 10.4079C7.07568 11.3428 7.48344 12.152 8.10625 12.8569C8.58222 13.3961 9.13428 13.8478 9.7156 14.2663C9.76525 14.302 9.76806 14.3225 9.73431 14.3726C8.6901 15.9249 7.64692 17.478 6.60478 19.0318C6.58523 19.0598 6.56667 19.0885 6.54304 19.1242Z" fill="#FB3F1D"/>
<path d="M6.54303 19.1259C6.56666 19.0902 6.58522 19.0615 6.60421 19.0333C7.64691 17.4799 8.69009 15.9268 9.73374 14.374C9.76749 14.324 9.76468 14.3037 9.71503 14.2677C9.13371 13.8493 8.58165 13.3975 8.10568 12.8584C7.48301 12.1532 7.07525 11.3443 6.93826 10.4094C6.80267 9.48107 6.84627 8.56811 7.19692 7.68622C7.56628 6.75708 8.21103 6.07464 9.08518 5.60163C9.70799 5.26478 10.3775 5.07405 11.0744 4.9687C11.5483 4.89739 12.0248 4.87222 12.5035 4.8725C13.6474 4.87353 14.7912 4.87306 15.9347 4.87109C16.0029 4.87109 16.0191 4.88769 16.0191 4.95548C16.0172 9.64742 16.0172 14.3394 16.0191 19.0316C16.0191 19.1026 16.0021 19.119 15.9315 19.1189C15.1628 19.116 14.394 19.1172 13.6248 19.1168C13.5263 19.1168 13.5368 19.1309 13.5368 19.0257C13.5368 14.9828 13.5368 10.94 13.5368 6.89717C13.5368 6.78367 13.5509 6.79872 13.4406 6.80026C12.986 6.80406 12.5312 6.78507 12.0763 6.81306C11.4778 6.85005 10.904 6.97777 10.3895 7.30351C9.8208 7.66344 9.47521 8.18005 9.37057 8.84111C9.25805 9.55843 9.33175 10.2617 9.62909 10.931C9.83051 11.3848 10.1471 11.7529 10.5117 12.0826C10.923 12.4547 11.3806 12.765 11.8396 13.0733C12.1544 13.285 12.468 13.4982 12.7841 13.7079C12.8301 13.7384 12.8278 13.7579 12.7997 13.7998C11.6202 15.5603 10.4414 17.3213 9.26339 19.0828C9.24497 19.1109 9.22865 19.1317 9.18744 19.1317C8.31333 19.1297 7.43918 19.129 6.56497 19.1295C6.56328 19.1297 6.56089 19.1289 6.54303 19.1259Z" fill="#FEFEFE"/>
</g>
<defs>
<clipPath id="clip0_775_78">
<rect width="24" height="24" fill="white"/>
</clipPath>
</defs>
</svg>
