<svg width="36" height="36" viewBox="0 0 36 36" fill="none" xmlns="http://www.w3.org/2000/svg">
<g clip-path="url(#clip0_3130_14985)">
<path d="M18.0241 35.5C8.46105 35.5183 0.602542 27.8301 0.501008 18.1895C0.398449 8.49894 8.13388 0.69776 17.6362 0.503721C27.4064 0.304348 35.4733 8.14307 35.5 17.9554C35.5264 27.6513 27.6766 35.4916 18.0241 35.5ZM10.0421 28.3895C10.0682 28.3938 10.0716 28.395 10.0749 28.395C11.3498 28.395 12.6246 28.3961 13.8994 28.3983C13.9595 28.3983 13.9832 28.3671 14.0101 28.3269C15.7286 25.7584 17.4476 23.1903 19.1672 20.6225C19.2082 20.561 19.2115 20.5331 19.1444 20.4886C18.6835 20.1828 18.2261 19.8718 17.7671 19.5631C17.0978 19.1135 16.4303 18.6606 15.8305 18.1183C15.2989 17.6375 14.8372 17.1007 14.5434 16.439C14.1098 15.4622 14.0015 14.4375 14.1664 13.3912C14.3184 12.4271 14.8228 11.6737 15.6523 11.1488C16.4026 10.6738 17.2395 10.4875 18.1123 10.4336C18.7746 10.3926 19.438 10.4205 20.1019 10.4149C20.2619 10.4135 20.2422 10.3907 20.2422 10.5563C20.2422 16.4521 20.2422 22.3479 20.2422 28.2436C20.2422 28.3979 20.2269 28.3765 20.3704 28.3765C21.4914 28.3765 22.6126 28.3753 23.7344 28.3796C23.8369 28.3796 23.8622 28.3558 23.8622 28.2522C23.8593 21.4096 23.8593 14.567 23.8622 7.72463C23.8622 7.62617 23.8396 7.60156 23.7391 7.60156C22.0708 7.60511 20.4028 7.6058 18.7352 7.60361C18.0378 7.60361 17.3423 7.63992 16.6512 7.74391C15.6349 7.89672 14.6585 8.17466 13.7502 8.66693C12.4754 9.35674 11.535 10.352 10.9965 11.707C10.4852 12.993 10.4222 14.3255 10.6193 15.6782C10.8189 17.0416 11.4135 18.2217 12.3218 19.2497C13.0159 20.0359 13.821 20.6947 14.6688 21.305C14.7412 21.3571 14.7453 21.387 14.696 21.46C13.1732 23.7238 11.6519 25.9887 10.1321 28.2547C10.1036 28.2955 10.0766 28.3374 10.0421 28.3895Z" fill="#FB3F1D"/>
<path d="M10.042 28.3938C10.0765 28.3417 10.1035 28.2998 10.1312 28.2586C11.6518 25.9933 13.1731 23.7284 14.6951 21.4639C14.7443 21.3909 14.7402 21.3614 14.6678 21.3089C13.8201 20.6986 13.015 20.0398 12.3209 19.2536C11.4128 18.2252 10.8182 17.0455 10.6184 15.6821C10.4206 14.3284 10.4842 12.9969 10.9956 11.7109C11.5342 10.3559 12.4745 9.36065 13.7493 8.67084C14.6576 8.17959 15.6339 7.90145 16.6503 7.74782C17.3413 7.64382 18.0363 7.60711 18.7343 7.60752C20.4026 7.60902 22.0706 7.60834 23.7382 7.60547C23.8376 7.60547 23.8612 7.62967 23.8612 7.72854C23.8585 14.5709 23.8585 21.4135 23.8612 28.2562C23.8612 28.3597 23.8364 28.3837 23.7334 28.3835C22.6125 28.3792 21.4913 28.3811 20.3695 28.3805C20.2259 28.3805 20.2413 28.401 20.2413 28.2475C20.2413 22.3517 20.2413 16.4559 20.2413 10.5602C20.2413 10.3946 20.2618 10.4166 20.101 10.4188C19.4381 10.4244 18.7747 10.3967 18.1114 10.4375C17.2386 10.4915 16.4017 10.6777 15.6514 11.1527C14.8221 11.6776 14.3181 12.431 14.1655 13.3951C14.0014 14.4412 14.1089 15.4668 14.5425 16.4429C14.8362 17.1046 15.2979 17.6414 15.8296 18.1222C16.4294 18.6649 17.0968 19.1174 17.7661 19.567C18.2252 19.8757 18.6826 20.1867 19.1435 20.4925C19.2106 20.537 19.2073 20.5653 19.1663 20.6264C17.4462 23.194 15.7271 25.7621 14.0092 28.3308C13.9823 28.3718 13.9585 28.4022 13.8984 28.4022C12.6237 28.3993 11.3489 28.3982 10.074 28.3989C10.0715 28.3993 10.068 28.3981 10.042 28.3938Z" fill="#FEFEFE"/>
</g>
<defs>
<clipPath id="clip0_3130_14985">
<rect width="35" height="35" fill="white" transform="translate(0.5 0.5)"/>
</clipPath>
</defs>
</svg>
