<svg width="118" height="98" viewBox="0 0 118 98" fill="none" xmlns="http://www.w3.org/2000/svg">
<rect x="102.377" y="33.75" width="21.5613" height="21.5613" transform="rotate(45 102.377 33.75)" fill="#191919"/>
<path fill-rule="evenodd" clip-rule="evenodd" d="M87.5424 79.7337C78.5605 90.8736 64.8009 98 49.377 98C22.315 98 0.376953 76.062 0.376953 49C0.376953 21.938 22.315 0 49.377 0C64.7994 0 78.5577 7.12503 87.5398 18.263L71.8192 33.9835C66.9742 26.7568 58.7311 22 49.377 22C34.4653 22 22.377 34.0883 22.377 49C22.377 63.9117 34.4653 76 49.377 76C58.7326 76 66.9769 71.2416 71.8216 64.0129L87.5424 79.7337Z" fill="#191919"/>
</svg>
