<svg width="23" height="23" viewBox="0 0 23 23" fill="none" xmlns="http://www.w3.org/2000/svg">
<path d="M16.471 6C16.471 3.23858 14.2324 1 11.471 1C8.70954 1 6.47097 3.23858 6.47097 6M16.471 6H17.7797C19.8654 6 20.9082 6 21.5045 6.66616C22.1007 7.33231 21.9855 8.36879 21.7552 10.4417L21.4594 13.1043C20.9892 17.3356 20.7542 19.4513 19.3304 20.7256C17.9066 22 15.7614 22 11.471 22C7.18057 22 5.03537 22 3.61158 20.7256C2.18778 19.4513 1.9527 17.3356 1.48256 13.1043L1.18672 10.4417C0.956389 8.36879 0.841226 7.33231 1.43746 6.66616C2.0337 6 3.07655 6 5.16225 6H6.47097M16.471 6H6.47097M17.471 10H5.47097" stroke="#131313" stroke-width="1.5" stroke-linecap="round"/>
</svg>
