<svg width="24" height="24" viewBox="0 0 24 24" fill="none" xmlns="http://www.w3.org/2000/svg">
<path d="M15.7731 12.972L14.6501 11.8489C14.8001 11.0207 14.5639 10.2762 13.9414 9.61529C13.319 8.95439 12.5552 8.69894 11.6501 8.84894L10.527 7.72589C10.7527 7.62461 10.9841 7.54865 11.2212 7.49802C11.4584 7.44737 11.718 7.42204 12.0001 7.42204C13.1347 7.42204 14.0978 7.81788 14.8895 8.60954C15.6811 9.40121 16.077 10.3643 16.077 11.4989C16.077 11.781 16.0517 12.0438 16.001 12.2874C15.9504 12.531 15.8744 12.7592 15.7731 12.972ZM18.9539 16.0835L17.8501 15.0489C18.4834 14.5656 19.0459 14.0364 19.5376 13.4614C20.0292 12.8864 20.4501 12.2323 20.8001 11.4989C19.9667 9.81561 18.7709 8.47811 17.2126 7.48644C15.6542 6.49478 13.9167 5.99894 12.0001 5.99894C11.5167 5.99894 11.0417 6.03228 10.5751 6.09894C10.1084 6.16561 9.65007 6.26561 9.20007 6.39894L8.03472 5.23359C8.66677 4.98231 9.31228 4.79705 9.97125 4.67782C10.6302 4.55859 11.3065 4.49897 12.0001 4.49897C14.3437 4.49897 16.4571 5.14512 18.3404 6.43742C20.2238 7.72974 21.5975 9.41691 22.4616 11.4989C22.0911 12.3925 21.6125 13.2265 21.026 14.0008C20.4395 14.7752 19.7488 15.4694 18.9539 16.0835ZM19.7616 21.8681L15.7155 17.8527C15.2027 18.0425 14.6344 18.1976 14.0107 18.3181C13.3869 18.4387 12.7167 18.4989 12.0001 18.4989C9.65009 18.4989 7.53664 17.8528 5.65972 16.5605C3.78281 15.2682 2.40909 13.581 1.53857 11.4989C1.90781 10.6156 2.38473 9.79157 2.96935 9.02682C3.55397 8.26209 4.19756 7.59895 4.90012 7.03742L2.13087 4.23742L3.18472 3.18359L20.8154 20.8143L19.7616 21.8681ZM5.95395 8.09122C5.42575 8.51174 4.91197 9.01719 4.4126 9.60759C3.91323 10.198 3.50906 10.8284 3.20007 11.4989C4.03341 13.1823 5.22924 14.5198 6.78757 15.5114C8.34591 16.5031 10.0834 16.9989 12.0001 16.9989C12.4552 16.9989 12.9084 16.9605 13.3597 16.8835C13.811 16.8066 14.1937 16.7271 14.5078 16.6451L13.2424 15.3489C13.0719 15.4181 12.8744 15.4733 12.6501 15.5143C12.4257 15.5553 12.2091 15.5758 12.0001 15.5758C10.8655 15.5758 9.90234 15.18 9.11067 14.3883C8.31901 13.5967 7.92317 12.6335 7.92317 11.4989C7.92317 11.2964 7.94369 11.0845 7.98472 10.8634C8.02576 10.6422 8.08088 10.44 8.1501 10.2566L5.95395 8.09122Z" fill="#A6A6A6"/>
</svg>
