<svg width="46" height="46" viewBox="0 0 46 46" fill="none" xmlns="http://www.w3.org/2000/svg">
<rect x="1" y="1" width="44" height="44" rx="22" fill="#FFDBDB"/>
<rect x="1" y="1" width="44" height="44" rx="22" stroke="#C20303" stroke-width="2"/>
<path d="M12.0752 30.6009H14.9252V30.1259C14.9252 27.8776 15.7089 25.9697 17.2764 24.4022C18.8439 22.8347 20.7519 22.0509 23.0002 22.0509C25.2485 22.0509 27.1564 22.8347 28.7239 24.4022C30.2914 25.9697 31.0752 27.8776 31.0752 30.1259V30.6009H33.9252V30.1259C33.9252 27.0859 32.8644 24.5051 30.7427 22.3834C28.621 20.2618 26.0402 19.2009 23.0002 19.2009C19.9602 19.2009 17.3794 20.2618 15.2577 22.3834C13.136 24.5051 12.0752 27.0859 12.0752 30.1259V30.6009ZM13.6902 17.7759C14.9885 17.5859 16.3581 17.0793 17.7989 16.2559C19.2398 15.4326 20.3877 14.4984 21.2427 13.4534L19.0577 11.6484C18.4244 12.4084 17.5456 13.1051 16.4214 13.7384C15.2973 14.3718 14.2602 14.7676 13.3102 14.9259L13.6902 17.7759ZM32.3102 17.7759L32.6902 14.9259C31.7402 14.7676 30.7031 14.3718 29.5789 13.7384C28.4548 13.1051 27.576 12.4084 26.9427 11.6484L24.7577 13.4534C25.6127 14.4984 26.7606 15.4326 28.2014 16.2559C29.6423 17.0793 31.0119 17.5859 32.3102 17.7759Z" fill="#C20303"/>
</svg>
