<svg width="46" height="46" viewBox="0 0 46 46" fill="none" xmlns="http://www.w3.org/2000/svg">
<rect x="1" y="1" width="44" height="44" rx="22" fill="#FFFAE7"/>
<rect x="1" y="1" width="44" height="44" rx="22" stroke="#E1C00F" stroke-width="2"/>
<path d="M21.9173 26.924C21.9173 25.7392 22.0538 24.8321 22.3269 24.2028C22.6 23.5735 23.1699 22.8758 24.0367 22.1096C24.7117 21.5085 25.2232 20.9633 25.5714 20.4742C25.9196 19.9852 26.0937 19.4307 26.0937 18.8107C26.0937 17.9882 25.8136 17.3045 25.2534 16.7598C24.6932 16.215 23.922 15.9426 22.9398 15.9426C22.0434 15.9426 21.3457 16.1828 20.8465 16.6631C20.3474 17.1435 19.9683 17.6795 19.7093 18.2713L17.7993 17.432C18.2059 16.4297 18.8406 15.5941 19.7033 14.9252C20.5661 14.2563 21.6449 13.9219 22.9398 13.9219C24.6304 13.9219 25.9317 14.3986 26.8434 15.3519C27.7552 16.3053 28.211 17.4367 28.211 18.7463C28.211 19.5648 28.0336 20.2871 27.6787 20.913C27.3238 21.539 26.7854 22.1908 26.0635 22.8684C25.1551 23.7016 24.5925 24.3588 24.3758 24.8398C24.1591 25.3209 24.0507 26.0156 24.0507 26.924H21.9173ZM22.9398 32.9219C22.5117 32.9219 22.1431 32.7672 21.8338 32.4579C21.5245 32.1487 21.3699 31.78 21.3699 31.352C21.3699 30.924 21.5245 30.5553 21.8338 30.246C22.1431 29.9367 22.5117 29.7821 22.9398 29.7821C23.3678 29.7821 23.7364 29.9367 24.0457 30.246C24.355 30.5553 24.5096 30.924 24.5096 31.352C24.5096 31.78 24.355 32.1487 24.0457 32.4579C23.7364 32.7672 23.3678 32.9219 22.9398 32.9219Z" fill="#E1C00F"/>
</svg>
